{"glyphs":{"0":{"ha":828,"x_min":0,"x_max":0,"o":"m 414 -14 b 769 288 582 -14 769 79 l 769 694 b 414 997 769 904 582 997 b 58 694 247 997 58 904 l 58 288 b 414 -14 58 79 247 -14 z m 414 779 b 533 688 469 779 533 747 l 533 285 b 414 197 533 228 471 197 b 294 285 354 197 294 228 l 294 688 b 414 779 294 746 356 779 z "},"1":{"ha":519,"x_min":0,"x_max":0,"o":"m 449 0 l 449 983 l 261 983 l 0 708 l 131 594 l 225 660 l 225 0 z "},"2":{"ha":775,"x_min":0,"x_max":0,"o":"m 229 672 b 424 581 338 871 556 729 l 24 131 l 86 1 l 719 1 l 719 238 l 497 238 l 382 214 l 599 419 b 721 694 688 503 721 603 b 392 997 721 849 608 997 b 43 774 257 997 124 928 z "},"3":{"ha":750,"x_min":0,"x_max":0,"o":"m 22 164 b 351 -14 96 40 225 -14 b 708 294 532 -14 708 103 b 576 525 708 371 676 474 b 646 825 676 588 685 728 b 350 997 593 956 471 997 b 40 838 239 997 121 938 l 185 710 b 411 728 246 779 367 797 b 353 607 439 686 417 607 l 206 607 l 206 408 l 358 408 b 465 314 429 408 465 364 b 342 229 465 261 408 229 b 183 313 283 229 219 254 z "},"4":{"ha":797,"x_min":0,"x_max":0,"o":"m 754 415 l 663 415 l 663 983 l 458 983 l 0 360 l 79 214 l 425 214 l 425 0 l 663 0 l 663 214 l 754 214 z m 269 413 l 446 664 l 443 413 z "},"5":{"ha":751,"x_min":0,"x_max":0,"o":"m 39 168 b 347 -14 118 39 236 -14 b 718 351 604 -14 718 169 b 271 654 718 589 510 742 l 271 765 l 656 765 l 656 983 l 72 983 l 72 410 l 186 410 b 346 492 231 469 289 492 b 475 346 421 492 481 446 b 215 307 469 231 308 193 z "},"6":{"ha":811,"x_min":0,"x_max":0,"o":"m 733 815 b 424 997 674 939 553 997 b 57 688 242 997 57 885 l 57 296 b 421 -14 57 92 238 -14 b 779 296 604 -14 779 93 l 779 354 b 294 585 779 599 483 719 l 294 686 b 424 785 294 749 357 785 b 560 715 475 785 529 764 z m 542 288 b 294 288 542 175 294 176 l 294 361 b 542 361 294 464 542 465 z "},"7":{"ha":735,"x_min":0,"x_max":0,"o":"m 31 983 l 31 747 l 406 747 l 86 0 l 353 0 l 732 850 l 665 983 z "},"8":{"ha":833,"x_min":0,"x_max":0,"o":"m 428 -14 b 792 310 671 -14 788 108 b 664 526 793 378 754 481 b 749 692 721 565 749 649 b 428 997 749 911 590 997 l 408 997 b 88 701 283 997 88 931 b 174 525 88 643 108 568 b 42 296 86 460 42 374 b 408 -14 42 97 183 -14 z m 429 794 b 417 600 558 786 569 600 b 408 794 282 600 281 792 z m 407 218 b 403 429 243 222 265 433 l 435 429 b 431 218 576 442 597 218 z "},"9":{"ha":817,"x_min":0,"x_max":0,"o":"m 61 174 b 396 -14 124 44 260 -14 b 760 301 578 -14 760 100 l 760 693 b 396 997 757 897 579 997 b 38 693 213 997 38 896 l 38 635 b 522 404 38 390 333 267 l 522 303 b 393 208 522 247 461 208 b 238 290 336 208 274 231 z m 275 701 b 522 701 275 806 522 804 l 522 628 b 275 628 522 525 275 524 z "},"A":{"ha":900,"x_min":0,"x_max":0,"o":"m 561 983 l 335 983 l -8 0 l 258 0 l 319 197 l 582 197 l 646 0 l 913 0 z m 375 418 l 447 706 l 454 706 l 522 418 z "},"Á":{"ha":900,"x_min":0,"x_max":0,"o":"m 704 1281 l 446 1281 l 307 1050 l 522 1050 z m 561 983 l 335 983 l -8 0 l 258 0 l 319 197 l 582 197 l 646 0 l 913 0 z m 375 418 l 447 706 l 454 706 l 522 418 z "},"Ă":{"ha":900,"x_min":0,"x_max":0,"o":"m 503 1281 b 394 1281 503 1210 394 1210 l 204 1281 b 690 1281 204 958 690 958 z m 561 983 l 335 983 l -8 0 l 258 0 l 319 197 l 582 197 l 646 0 l 913 0 z m 375 418 l 447 706 l 454 706 l 522 418 z "},"Â":{"ha":900,"x_min":0,"x_max":0,"o":"m 531 1283 l 368 1283 l 154 1050 l 389 1050 l 450 1122 l 514 1050 l 739 1050 z m 561 983 l 335 983 l -8 0 l 258 0 l 319 197 l 582 197 l 646 0 l 913 0 z m 375 418 l 447 706 l 454 706 l 522 418 z "},"Ä":{"ha":900,"x_min":0,"x_max":0,"o":"m 165 1158 b 282 1043 165 1094 217 1043 b 399 1158 347 1043 399 1094 b 282 1276 399 1225 347 1276 b 165 1158 217 1276 165 1225 z m 500 1158 b 617 1043 500 1094 549 1043 b 735 1158 683 1043 735 1094 b 617 1276 735 1225 683 1276 b 500 1158 549 1276 500 1225 z m 561 983 l 335 983 l -8 0 l 258 0 l 319 197 l 582 197 l 646 0 l 913 0 z m 375 418 l 447 706 l 454 706 l 522 418 z "},"À":{"ha":900,"x_min":0,"x_max":0,"o":"m 592 1050 l 453 1281 l 194 1281 l 376 1050 z m 561 983 l 335 983 l -8 0 l 258 0 l 319 197 l 582 197 l 646 0 l 913 0 z m 375 418 l 447 706 l 454 706 l 522 418 z "},"Ā":{"ha":900,"x_min":0,"x_max":0,"o":"m 242 1053 l 654 1053 l 654 1239 l 242 1239 z m 561 983 l 335 983 l -8 0 l 258 0 l 319 197 l 582 197 l 646 0 l 913 0 z m 375 418 l 447 706 l 454 706 l 522 418 z "},"Ą":{"ha":900,"x_min":0,"x_max":0,"o":"m 938 -135 b 882 -154 915 -149 897 -154 b 913 0 825 -156 822 -82 l 561 983 l 335 983 l -8 0 l 258 0 l 319 197 l 582 197 l 646 0 l 721 0 b 817 -339 574 -178 628 -339 b 976 -283 865 -339 929 -322 z m 375 418 l 447 706 l 454 706 l 522 418 z "},"Å":{"ha":900,"x_min":0,"x_max":0,"o":"m 646 0 l 913 0 l 572 954 b 629 1083 607 986 629 1033 b 451 1265 629 1175 553 1265 b 269 1085 350 1265 269 1183 b 325 956 269 1033 290 988 l -8 0 l 258 0 l 319 197 l 582 197 z m 451 1138 b 501 1082 479 1138 501 1111 b 451 1033 501 1051 479 1033 b 399 1082 418 1033 399 1061 b 451 1138 399 1111 418 1138 z m 454 706 l 522 418 l 375 418 l 447 706 z "},"Ã":{"ha":900,"x_min":0,"x_max":0,"o":"m 304 1040 b 546 1038 360 1149 435 1038 b 690 1194 614 1036 664 1092 l 564 1267 b 360 1272 519 1163 442 1271 b 183 1108 265 1275 204 1219 z m 561 983 l 335 983 l -8 0 l 258 0 l 319 197 l 582 197 l 646 0 l 913 0 z m 375 418 l 447 706 l 454 706 l 522 418 z "},"Æ":{"ha":1158,"x_min":0,"x_max":0,"o":"m 1103 739 l 1103 983 l 401 983 l -18 0 l 281 0 l 376 267 l 526 267 l 526 0 l 1103 0 l 1103 238 l 763 238 l 763 369 l 1068 369 l 1068 610 l 763 610 l 763 739 z m 439 479 l 533 729 l 544 729 l 539 479 z "},"B":{"ha":867,"x_min":0,"x_max":0,"o":"m 792 683 b 472 983 797 871 660 983 l 78 983 l 78 0 l 479 0 b 829 254 697 0 804 96 b 690 524 842 329 825 456 b 792 683 761 560 790 639 z m 328 599 l 328 774 l 472 774 b 472 599 597 774 593 599 z m 328 218 l 328 419 l 472 419 b 472 218 619 419 622 218 z "},"C":{"ha":808,"x_min":0,"x_max":0,"o":"m 579 307 b 303 322 525 171 303 204 l 303 661 b 589 689 303 783 522 811 l 792 771 b 446 997 713 946 567 997 b 54 661 249 997 54 883 l 54 322 b 442 -14 54 99 249 -14 b 796 207 565 -14 714 47 z "},"Ć":{"ha":808,"x_min":0,"x_max":0,"o":"m 700 1281 l 442 1281 l 303 1050 l 518 1050 z m 579 307 b 303 322 525 171 303 204 l 303 661 b 589 689 303 783 522 811 l 792 771 b 446 997 713 946 567 997 b 54 661 249 997 54 883 l 54 322 b 442 -14 54 99 249 -14 b 796 207 565 -14 714 47 z "},"Č":{"ha":808,"x_min":0,"x_max":0,"o":"m 156 1283 l 364 1050 l 533 1050 l 742 1283 l 510 1283 l 446 1211 l 389 1283 z m 579 307 b 303 322 525 171 303 204 l 303 661 b 589 689 303 783 522 811 l 792 771 b 446 997 713 946 567 997 b 54 661 249 997 54 883 l 54 322 b 442 -14 54 99 249 -14 b 796 207 565 -14 714 47 z "},"Ç":{"ha":808,"x_min":0,"x_max":0,"o":"m 579 307 b 303 322 525 171 303 204 l 303 661 b 589 689 303 783 522 811 l 792 771 b 446 997 713 946 567 997 b 54 661 249 997 54 883 l 54 322 b 361 -7 54 131 197 19 l 318 -103 b 424 -175 390 -108 433 -143 b 269 -162 410 -226 331 -204 l 225 -282 b 428 -353 294 -339 367 -353 b 518 -43 629 -353 704 -92 l 536 -3 b 796 207 635 22 735 86 z "},"Ċ":{"ha":808,"x_min":0,"x_max":0,"o":"m 308 1182 b 446 1046 308 1106 368 1046 b 581 1182 524 1046 581 1106 b 446 1317 581 1257 524 1317 b 308 1182 368 1317 308 1257 z m 579 307 b 303 322 525 171 303 204 l 303 661 b 589 689 303 783 522 811 l 792 771 b 446 997 713 946 567 997 b 54 661 249 997 54 883 l 54 322 b 442 -14 54 99 249 -14 b 796 207 565 -14 714 47 z "},"D":{"ha":883,"x_min":0,"x_max":0,"o":"m 78 983 l 78 0 l 446 0 b 828 324 643 -1 828 97 l 828 654 b 446 983 828 883 643 983 z m 328 233 l 328 751 l 454 751 b 578 647 538 751 578 711 l 578 340 b 454 233 578 276 539 233 z "},"Ð":{"ha":892,"x_min":0,"x_max":0,"o":"m 86 594 l 19 594 l 19 396 l 86 396 l 86 0 l 483 0 b 836 324 682 0 836 97 l 836 658 b 483 983 836 888 682 983 l 86 983 z m 338 244 l 338 396 l 453 396 l 453 594 l 338 594 l 338 739 l 483 739 b 586 658 549 739 586 713 l 586 324 b 483 244 586 271 549 244 z "},"Ď":{"ha":883,"x_min":0,"x_max":0,"o":"m 111 1283 l 319 1050 l 489 1050 l 697 1283 l 465 1283 l 401 1211 l 344 1283 z m 78 983 l 78 0 l 446 0 b 828 324 643 -1 828 97 l 828 654 b 446 983 828 883 643 983 z m 328 233 l 328 751 l 454 751 b 578 647 538 751 578 711 l 578 340 b 454 233 578 276 539 233 z "},"Đ":{"ha":892,"x_min":0,"x_max":0,"o":"m 86 594 l 19 594 l 19 396 l 86 396 l 86 0 l 483 0 b 836 324 682 0 836 97 l 836 658 b 483 983 836 888 682 983 l 86 983 z m 338 244 l 338 396 l 453 396 l 453 594 l 338 594 l 338 739 l 483 739 b 586 658 549 739 586 713 l 586 324 b 483 244 586 271 549 244 z "},"E":{"ha":817,"x_min":0,"x_max":0,"o":"m 329 750 l 763 750 l 763 983 l 78 983 l 78 0 l 763 0 l 763 235 l 329 235 l 329 382 l 728 382 l 728 597 l 329 597 z "},"É":{"ha":817,"x_min":0,"x_max":0,"o":"m 683 1281 l 425 1281 l 286 1050 l 501 1050 z m 329 750 l 763 750 l 763 983 l 78 983 l 78 0 l 763 0 l 763 235 l 329 235 l 329 382 l 728 382 l 728 597 l 329 597 z "},"Ě":{"ha":817,"x_min":0,"x_max":0,"o":"m 139 1283 l 347 1050 l 517 1050 l 725 1283 l 493 1283 l 429 1211 l 372 1283 z m 329 750 l 763 750 l 763 983 l 78 983 l 78 0 l 763 0 l 763 235 l 329 235 l 329 382 l 728 382 l 728 597 l 329 597 z "},"Ê":{"ha":817,"x_min":0,"x_max":0,"o":"m 510 1283 l 347 1283 l 133 1050 l 368 1050 l 429 1122 l 493 1050 l 718 1050 z m 329 750 l 763 750 l 763 983 l 78 983 l 78 0 l 763 0 l 763 235 l 329 235 l 329 382 l 728 382 l 728 597 l 329 597 z "},"Ë":{"ha":817,"x_min":0,"x_max":0,"o":"m 144 1158 b 261 1043 144 1094 196 1043 b 378 1158 326 1043 378 1094 b 261 1276 378 1225 326 1276 b 144 1158 196 1276 144 1225 z m 479 1158 b 596 1043 479 1094 528 1043 b 714 1158 663 1043 714 1094 b 596 1276 714 1225 663 1276 b 479 1158 528 1276 479 1225 z m 329 750 l 763 750 l 763 983 l 78 983 l 78 0 l 763 0 l 763 235 l 329 235 l 329 382 l 728 382 l 728 597 l 329 597 z "},"Ė":{"ha":817,"x_min":0,"x_max":0,"o":"m 292 1182 b 429 1046 292 1106 351 1046 b 564 1182 507 1046 564 1106 b 429 1317 564 1257 507 1317 b 292 1182 351 1317 292 1257 z m 329 750 l 763 750 l 763 983 l 78 983 l 78 0 l 763 0 l 763 235 l 329 235 l 329 382 l 728 382 l 728 597 l 329 597 z "},"È":{"ha":817,"x_min":0,"x_max":0,"o":"m 571 1050 l 432 1281 l 174 1281 l 356 1050 z m 329 750 l 763 750 l 763 983 l 78 983 l 78 0 l 763 0 l 763 235 l 329 235 l 329 382 l 728 382 l 728 597 l 329 597 z "},"Ē":{"ha":817,"x_min":0,"x_max":0,"o":"m 221 1053 l 633 1053 l 633 1239 l 221 1239 z m 329 750 l 763 750 l 763 983 l 78 983 l 78 0 l 763 0 l 763 235 l 329 235 l 329 382 l 728 382 l 728 597 l 329 597 z "},"Ę":{"ha":817,"x_min":0,"x_max":0,"o":"m 789 -135 b 733 -154 767 -149 749 -154 b 763 0 676 -156 674 -85 l 763 235 l 329 235 l 329 382 l 728 382 l 728 597 l 329 597 l 329 750 l 763 750 l 763 983 l 78 983 l 78 0 l 572 0 b 668 -339 425 -178 479 -339 b 828 -283 717 -339 781 -322 z "},"F":{"ha":800,"x_min":0,"x_max":0,"o":"m 329 747 l 763 747 l 763 983 l 78 983 l 78 0 l 329 0 l 329 339 l 708 339 l 708 571 l 329 571 z "},"G":{"ha":867,"x_min":0,"x_max":0,"o":"m 785 788 b 443 997 717 944 571 997 b 54 664 249 997 54 886 l 54 326 b 443 -14 54 100 249 -14 b 829 326 640 -14 829 100 l 829 571 l 433 571 l 433 363 l 590 363 l 590 326 b 303 326 590 174 303 172 l 303 664 b 576 692 303 793 522 824 z "},"Ğ":{"ha":867,"x_min":0,"x_max":0,"o":"m 496 1281 b 388 1281 496 1210 388 1210 l 197 1281 b 683 1281 197 958 683 958 z m 785 788 b 443 997 717 944 571 997 b 54 664 249 997 54 886 l 54 326 b 443 -14 54 100 249 -14 b 829 326 640 -14 829 100 l 829 571 l 433 571 l 433 363 l 590 363 l 590 326 b 303 326 590 174 303 172 l 303 664 b 576 692 303 793 522 824 z "},"Ģ":{"ha":867,"x_min":0,"x_max":0,"o":"m 785 788 b 443 997 717 944 571 997 b 54 664 249 997 54 886 l 54 326 b 443 -14 54 100 249 -14 b 829 326 640 -14 829 100 l 829 571 l 433 571 l 433 363 l 590 363 l 590 326 b 303 326 590 174 303 172 l 303 664 b 576 692 303 793 522 824 z m 594 -64 l 349 -64 l 264 -347 l 490 -347 z "},"Ġ":{"ha":867,"x_min":0,"x_max":0,"o":"m 306 1182 b 443 1046 306 1106 365 1046 b 578 1182 521 1046 578 1106 b 443 1317 578 1257 521 1317 b 306 1182 365 1317 306 1257 z m 785 788 b 443 997 717 944 571 997 b 54 664 249 997 54 886 l 54 326 b 443 -14 54 100 249 -14 b 829 326 640 -14 829 100 l 829 571 l 433 571 l 433 363 l 590 363 l 590 326 b 303 326 590 174 303 172 l 303 664 b 576 692 303 793 522 824 z "},"H":{"ha":939,"x_min":0,"x_max":0,"o":"m 328 371 l 611 371 l 611 0 l 861 0 l 861 983 l 611 983 l 611 611 l 328 611 l 328 983 l 78 983 l 78 0 l 328 0 z "},"Ħ":{"ha":968,"x_min":0,"x_max":0,"o":"m 876 719 l 957 719 l 957 864 l 876 864 l 876 983 l 626 983 l 626 864 l 343 864 l 343 983 l 93 983 l 93 864 l 11 864 l 11 719 l 93 719 l 93 0 l 343 0 l 343 371 l 626 371 l 626 0 l 876 0 z m 343 719 l 626 719 l 626 611 l 343 611 z "},"I":{"ha":404,"x_min":0,"x_max":0,"o":"m 326 983 l 78 983 l 78 0 l 326 0 z "},"Ĳ":{"ha":1219,"x_min":0,"x_max":0,"o":"m 326 983 l 78 983 l 78 0 l 326 0 z m 408 289 b 774 -14 436 81 604 -14 b 1149 321 961 -14 1149 107 l 1149 983 l 679 983 l 679 758 l 903 758 l 903 321 b 783 226 903 264 844 226 b 643 338 722 226 657 258 z "},"Í":{"ha":404,"x_min":0,"x_max":0,"o":"m 457 1281 l 199 1281 l 60 1050 l 275 1050 z m 326 983 l 78 983 l 78 0 l 326 0 z "},"Î":{"ha":404,"x_min":0,"x_max":0,"o":"m 283 1283 l 121 1283 l -79 1050 l 156 1050 l 203 1119 l 253 1050 l 478 1050 z m 326 983 l 78 983 l 78 0 l 326 0 z "},"Ï":{"ha":404,"x_min":0,"x_max":0,"o":"m -60 1158 b 57 1043 -60 1094 -8 1043 b 174 1158 122 1043 174 1094 b 57 1276 174 1225 122 1276 b -60 1158 -8 1276 -60 1225 z m 233 1158 b 350 1043 233 1094 282 1043 b 468 1158 417 1043 468 1094 b 350 1276 468 1225 417 1276 b 233 1158 282 1276 233 1225 z m 326 983 l 78 983 l 78 0 l 326 0 z "},"İ":{"ha":404,"x_min":0,"x_max":0,"o":"m 65 1182 b 203 1046 65 1106 125 1046 b 338 1182 281 1046 338 1106 b 203 1317 338 1257 281 1317 b 65 1182 125 1317 65 1257 z m 326 983 l 78 983 l 78 0 l 326 0 z "},"Ì":{"ha":404,"x_min":0,"x_max":0,"o":"m 344 1050 l 206 1281 l -53 1281 l 129 1050 z m 326 983 l 78 983 l 78 0 l 326 0 z "},"Ī":{"ha":404,"x_min":0,"x_max":0,"o":"m -6 1053 l 407 1053 l 407 1239 l -6 1239 z m 326 983 l 78 983 l 78 0 l 326 0 z "},"Į":{"ha":404,"x_min":0,"x_max":0,"o":"m 350 -135 b 294 -154 328 -149 310 -154 b 326 0 235 -156 244 -71 l 326 983 l 78 983 l 78 0 l 133 0 b 229 -339 -14 -178 40 -339 b 389 -283 278 -339 342 -322 z "},"J":{"ha":815,"x_min":0,"x_max":0,"o":"m 4 289 b 369 -14 32 81 200 -14 b 744 321 557 -14 744 107 l 744 983 l 275 983 l 275 758 l 499 758 l 499 321 b 379 226 499 264 440 226 b 239 338 318 226 253 258 z "},"K":{"ha":889,"x_min":0,"x_max":0,"o":"m 328 619 l 328 983 l 78 983 l 78 0 l 328 0 l 328 340 l 336 351 l 588 0 l 903 0 l 515 508 l 904 983 l 594 983 z "},"Ķ":{"ha":889,"x_min":0,"x_max":0,"o":"m 328 619 l 328 983 l 78 983 l 78 0 l 328 0 l 328 340 l 336 351 l 588 0 l 903 0 l 515 508 l 904 983 l 594 983 z m 607 -69 l 361 -69 l 276 -353 l 503 -353 z "},"L":{"ha":749,"x_min":0,"x_max":0,"o":"m 78 0 l 728 0 l 728 246 l 328 246 l 328 983 l 78 983 z "},"Ĺ":{"ha":749,"x_min":0,"x_max":0,"o":"m 460 1281 l 201 1281 l 63 1050 l 278 1050 z m 78 0 l 728 0 l 728 246 l 328 246 l 328 983 l 78 983 z "},"Ľ":{"ha":763,"x_min":0,"x_max":0,"o":"m 78 0 l 728 0 l 728 246 l 328 246 l 328 983 l 78 983 z m 756 978 l 524 978 l 439 694 l 651 694 z "},"Ļ":{"ha":749,"x_min":0,"x_max":0,"o":"m 78 0 l 728 0 l 728 246 l 328 246 l 328 983 l 78 983 z m 564 -69 l 318 -69 l 233 -353 l 460 -353 z "},"Ŀ":{"ha":761,"x_min":0,"x_max":0,"o":"m 78 0 l 728 0 l 728 246 l 328 246 l 328 983 l 78 983 z m 407 528 b 542 397 407 454 463 397 b 672 528 617 397 672 454 b 542 663 672 603 617 663 b 407 528 463 663 407 603 z "},"Ł":{"ha":792,"x_min":0,"x_max":0,"o":"m 753 253 l 372 253 l 372 464 l 617 565 l 551 721 l 372 647 l 372 983 l 121 983 l 121 540 l 1 490 l 64 333 l 121 357 l 121 0 l 753 0 z "},"M":{"ha":1068,"x_min":0,"x_max":0,"o":"m 78 0 l 326 0 l 326 283 l 310 482 l 317 483 l 449 146 l 619 146 l 749 483 l 757 482 l 742 283 l 740 0 l 990 0 l 990 983 l 742 983 l 533 503 l 326 983 l 78 983 z "},"N":{"ha":939,"x_min":0,"x_max":0,"o":"m 78 0 l 326 0 l 326 393 l 294 583 l 301 585 l 388 388 l 610 0 l 861 0 l 861 983 l 614 983 l 614 538 b 642 368 615 538 640 368 l 635 367 l 551 564 l 314 983 l 78 983 z "},"Ń":{"ha":939,"x_min":0,"x_max":0,"o":"m 726 1281 l 468 1281 l 329 1050 l 544 1050 z m 78 0 l 326 0 l 326 393 l 294 583 l 301 585 l 388 388 l 610 0 l 861 0 l 861 983 l 614 983 l 614 538 b 642 368 615 538 640 368 l 635 367 l 551 564 l 314 983 l 78 983 z "},"Ň":{"ha":939,"x_min":0,"x_max":0,"o":"m 182 1283 l 390 1050 l 560 1050 l 768 1283 l 536 1283 l 472 1211 l 415 1283 z m 78 0 l 326 0 l 326 393 l 294 583 l 301 585 l 388 388 l 610 0 l 861 0 l 861 983 l 614 983 l 614 538 b 642 368 615 538 640 368 l 635 367 l 551 564 l 314 983 l 78 983 z "},"Ņ":{"ha":939,"x_min":0,"x_max":0,"o":"m 78 0 l 326 0 l 326 393 l 294 583 l 301 585 l 388 388 l 610 0 l 861 0 l 861 983 l 614 983 l 614 538 b 642 368 615 538 640 368 l 635 367 l 551 564 l 314 983 l 78 983 z m 632 -69 l 386 -69 l 301 -353 l 528 -353 z "},"Ŋ":{"ha":939,"x_min":0,"x_max":0,"o":"m 861 983 l 614 983 l 614 549 b 639 379 615 549 638 379 l 635 378 l 551 575 l 314 983 l 78 983 l 78 0 l 326 0 l 326 393 l 296 583 l 301 585 l 388 388 l 626 10 l 626 -4 b 521 -75 626 -47 590 -92 l 521 -279 b 861 -7 714 -329 861 -218 z "},"Ñ":{"ha":939,"x_min":0,"x_max":0,"o":"m 331 1035 b 572 1032 386 1143 461 1032 b 717 1189 640 1031 690 1086 l 590 1261 b 386 1267 546 1157 468 1265 b 210 1103 292 1269 231 1214 z m 78 0 l 326 0 l 326 393 l 294 583 l 301 585 l 388 388 l 610 0 l 861 0 l 861 983 l 614 983 l 614 538 b 642 368 615 538 640 368 l 635 367 l 551 564 l 314 983 l 78 983 z "},"O":{"ha":924,"x_min":0,"x_max":0,"o":"m 54 324 b 463 -14 54 99 258 -14 b 869 324 667 -14 869 99 l 869 660 b 461 997 869 885 665 997 b 54 660 257 997 54 886 z m 303 660 b 458 771 303 732 381 771 b 621 660 539 771 621 736 l 621 324 b 463 217 621 253 542 217 b 303 324 383 217 303 251 z "},"Ó":{"ha":924,"x_min":0,"x_max":0,"o":"m 715 1283 l 457 1283 l 318 1053 l 533 1053 z m 54 324 b 463 -14 54 99 258 -14 b 869 324 667 -14 869 99 l 869 660 b 461 997 869 885 665 997 b 54 660 257 997 54 886 z m 303 660 b 458 771 303 732 381 771 b 621 660 539 771 621 736 l 621 324 b 463 217 621 253 542 217 b 303 324 383 217 303 251 z "},"Ô":{"ha":924,"x_min":0,"x_max":0,"o":"m 542 1286 l 379 1286 l 165 1053 l 400 1053 l 461 1125 l 525 1053 l 750 1053 z m 54 324 b 463 -14 54 99 258 -14 b 869 324 667 -14 869 99 l 869 660 b 461 997 869 885 665 997 b 54 660 257 997 54 886 z m 303 660 b 458 771 303 732 381 771 b 621 660 539 771 621 736 l 621 324 b 463 217 621 253 542 217 b 303 324 383 217 303 251 z "},"Ö":{"ha":924,"x_min":0,"x_max":0,"o":"m 176 1161 b 293 1046 176 1097 228 1046 b 410 1161 358 1046 410 1097 b 293 1279 410 1228 358 1279 b 176 1161 228 1279 176 1228 z m 511 1161 b 628 1046 511 1097 560 1046 b 746 1161 694 1046 746 1097 b 628 1279 746 1228 694 1279 b 511 1161 560 1279 511 1228 z m 54 324 b 463 -14 54 99 258 -14 b 869 324 667 -14 869 99 l 869 660 b 461 997 869 885 665 997 b 54 660 257 997 54 886 z m 303 660 b 458 771 303 732 381 771 b 621 660 539 771 621 736 l 621 324 b 463 217 621 253 542 217 b 303 324 383 217 303 251 z "},"Ò":{"ha":924,"x_min":0,"x_max":0,"o":"m 603 1053 l 464 1283 l 206 1283 l 388 1053 z m 54 324 b 463 -14 54 99 258 -14 b 869 324 667 -14 869 99 l 869 660 b 461 997 869 885 665 997 b 54 660 257 997 54 886 z m 303 660 b 458 771 303 732 381 771 b 621 660 539 771 621 736 l 621 324 b 463 217 621 253 542 217 b 303 324 383 217 303 251 z "},"Ő":{"ha":924,"x_min":0,"x_max":0,"o":"m 542 1272 l 296 1272 l 192 1053 l 388 1053 z m 864 1272 l 610 1272 l 507 1053 l 701 1053 z m 54 324 b 463 -14 54 99 258 -14 b 869 324 667 -14 869 99 l 869 660 b 461 997 869 885 665 997 b 54 660 257 997 54 886 z m 303 660 b 458 771 303 732 381 771 b 621 660 539 771 621 736 l 621 324 b 463 217 621 253 542 217 b 303 324 383 217 303 251 z "},"Ō":{"ha":924,"x_min":0,"x_max":0,"o":"m 253 1056 l 665 1056 l 665 1242 l 253 1242 z m 54 324 b 463 -14 54 99 258 -14 b 869 324 667 -14 869 99 l 869 660 b 461 997 869 885 665 997 b 54 660 257 997 54 886 z m 303 660 b 458 771 303 732 381 771 b 621 660 539 771 621 736 l 621 324 b 463 217 621 253 542 217 b 303 324 383 217 303 251 z "},"Ø":{"ha":924,"x_min":0,"x_max":0,"o":"m 797 1050 l 579 1122 l 529 993 b 461 997 507 996 483 997 b 54 660 257 997 54 886 l 54 324 b 182 71 54 211 106 126 l 124 -65 l 343 -143 l 397 -10 b 463 -14 418 -12 440 -14 b 869 324 667 -14 869 99 l 869 660 b 743 913 869 772 819 856 z m 621 324 b 463 217 621 253 542 217 b 303 324 383 217 303 251 l 303 660 b 458 771 303 732 381 771 b 621 660 539 771 621 736 z "},"Õ":{"ha":924,"x_min":0,"x_max":0,"o":"m 319 1038 b 561 1035 375 1146 450 1035 b 706 1192 629 1033 679 1089 l 579 1264 b 375 1269 535 1160 457 1268 b 199 1106 281 1272 219 1217 z m 54 324 b 463 -14 54 99 258 -14 b 869 324 667 -14 869 99 l 869 660 b 461 997 869 885 665 997 b 54 660 257 997 54 886 z m 303 660 b 458 771 303 732 381 771 b 621 660 539 771 621 736 l 621 324 b 463 217 621 253 542 217 b 303 324 383 217 303 251 z "},"Œ":{"ha":1128,"x_min":0,"x_max":0,"o":"m 743 749 l 1074 749 l 1074 983 l 531 983 l 531 949 b 353 997 472 983 411 997 b 58 681 196 997 58 872 l 58 294 b 361 -14 58 114 163 -14 b 531 44 418 -14 478 3 l 531 0 l 1074 0 l 1074 233 l 743 233 l 743 376 l 1038 376 l 1038 603 l 743 603 z m 531 238 b 428 200 513 215 471 200 b 308 317 368 200 308 232 l 308 679 b 531 749 308 782 449 815 z "},"P":{"ha":858,"x_min":0,"x_max":0,"o":"m 78 0 l 326 0 l 326 288 l 472 288 b 831 636 710 288 831 461 b 471 983 831 810 711 983 l 78 983 z m 326 508 l 326 751 l 471 751 b 471 508 621 753 621 507 z "},"Þ":{"ha":772,"x_min":0,"x_max":0,"o":"m 329 836 l 329 993 l 78 993 l 78 1 l 329 1 l 329 176 b 749 503 538 176 749 247 b 343 836 749 724 607 836 z m 329 610 b 329 396 565 636 565 368 z "},"Q":{"ha":924,"x_min":0,"x_max":0,"o":"m 54 324 b 463 -14 54 99 258 -14 b 678 32 538 -14 613 1 l 758 -51 l 896 72 l 819 150 b 869 324 850 197 869 256 l 869 660 b 461 997 869 885 665 997 b 54 660 257 997 54 886 z m 303 660 b 621 660 303 807 621 811 l 621 351 l 553 421 l 415 301 l 496 218 b 303 324 415 183 303 233 z "},"R":{"ha":897,"x_min":0,"x_max":0,"o":"m 601 0 l 911 0 l 643 338 b 836 660 763 375 836 478 b 471 983 831 890 674 983 l 78 983 l 78 0 l 329 0 l 329 313 l 374 313 z m 329 526 l 329 751 l 475 751 b 475 526 632 751 632 526 z "},"Ŕ":{"ha":897,"x_min":0,"x_max":0,"o":"m 681 1281 l 422 1281 l 283 1050 l 499 1050 z m 601 0 l 911 0 l 643 338 b 836 660 763 375 836 478 b 471 983 831 890 674 983 l 78 983 l 78 0 l 329 0 l 329 313 l 374 313 z m 329 526 l 329 751 l 475 751 b 475 526 632 751 632 526 z "},"Ř":{"ha":897,"x_min":0,"x_max":0,"o":"m 136 1283 l 344 1050 l 514 1050 l 722 1283 l 490 1283 l 426 1211 l 369 1283 z m 601 0 l 911 0 l 643 338 b 836 660 763 375 836 478 b 471 983 831 890 674 983 l 78 983 l 78 0 l 329 0 l 329 313 l 374 313 z m 329 526 l 329 751 l 475 751 b 475 526 632 751 632 526 z "},"Ŗ":{"ha":897,"x_min":0,"x_max":0,"o":"m 601 0 l 911 0 l 643 338 b 836 660 763 375 836 478 b 471 983 831 890 674 983 l 78 983 l 78 0 l 329 0 l 329 313 l 374 313 z m 329 526 l 329 751 l 475 751 b 475 526 632 751 632 526 z m 615 -69 l 369 -69 l 285 -353 l 511 -353 z "},"S":{"ha":783,"x_min":0,"x_max":0,"o":"m 31 164 b 365 -14 122 46 247 -14 b 754 281 546 -14 746 90 b 415 615 765 522 590 583 b 285 707 339 632 288 660 b 568 715 289 821 465 825 l 731 840 b 394 997 629 964 514 997 b 39 703 214 997 39 896 b 342 390 39 515 183 415 b 510 292 422 379 513 347 b 188 311 503 186 286 192 z "},"Ś":{"ha":783,"x_min":0,"x_max":0,"o":"m 649 1281 l 390 1281 l 251 1050 l 467 1050 z m 31 164 b 365 -14 122 46 247 -14 b 754 281 546 -14 746 90 b 415 615 765 522 590 583 b 285 707 339 632 288 660 b 568 715 289 821 465 825 l 731 840 b 394 997 629 964 514 997 b 39 703 214 997 39 896 b 342 390 39 515 183 415 b 510 292 422 379 513 347 b 188 311 503 186 286 192 z "},"Š":{"ha":783,"x_min":0,"x_max":0,"o":"m 104 1283 l 313 1050 l 482 1050 l 690 1283 l 458 1283 l 394 1211 l 338 1283 z m 31 164 b 365 -14 122 46 247 -14 b 754 281 546 -14 746 90 b 415 615 765 522 590 583 b 285 707 339 632 288 660 b 568 715 289 821 465 825 l 731 840 b 394 997 629 964 514 997 b 39 703 214 997 39 896 b 342 390 39 515 183 415 b 510 292 422 379 513 347 b 188 311 503 186 286 192 z "},"Ş":{"ha":783,"x_min":0,"x_max":0,"o":"m 415 615 b 285 707 339 632 288 660 b 568 715 289 821 465 825 l 731 840 b 394 997 629 964 514 997 b 39 703 214 997 39 896 b 342 390 39 515 183 415 b 510 292 422 379 513 347 b 188 311 503 186 286 192 l 31 164 b 307 -10 107 65 207 7 l 265 -103 b 371 -175 338 -108 381 -143 b 217 -162 357 -226 278 -204 l 172 -282 b 375 -353 242 -339 314 -353 b 465 -43 576 -353 651 -92 l 485 1 b 754 281 625 36 747 132 b 415 615 765 522 590 583 z "},"Ș":{"ha":783,"x_min":0,"x_max":0,"o":"m 31 164 b 365 -14 122 46 247 -14 b 754 281 546 -14 746 90 b 415 615 765 522 590 583 b 285 707 339 632 288 660 b 568 715 289 821 465 825 l 731 840 b 394 997 629 964 514 997 b 39 703 214 997 39 896 b 342 390 39 515 183 415 b 510 292 422 379 513 347 b 188 311 503 186 286 192 z m 528 -69 l 282 -69 l 197 -353 l 424 -353 z "},"T":{"ha":813,"x_min":0,"x_max":0,"o":"m 793 749 l 793 985 l 19 985 l 19 749 l 281 749 l 281 0 l 532 0 l 532 749 z "},"Ŧ":{"ha":818,"x_min":0,"x_max":0,"o":"m 535 479 l 535 749 l 796 749 l 796 985 l 22 985 l 22 749 l 283 749 l 283 479 l 172 479 l 172 293 l 283 293 l 283 0 l 535 0 l 535 293 l 640 293 l 640 479 z "},"Ť":{"ha":813,"x_min":0,"x_max":0,"o":"m 110 1283 l 318 1050 l 488 1050 l 696 1283 l 464 1283 l 400 1211 l 343 1283 z m 793 749 l 793 985 l 19 985 l 19 749 l 281 749 l 281 0 l 532 0 l 532 749 z "},"Ţ":{"ha":813,"x_min":0,"x_max":0,"o":"m 793 749 l 793 985 l 19 985 l 19 749 l 281 749 l 281 0 l 532 0 l 532 749 z m 564 -69 l 318 -69 l 233 -353 l 460 -353 z "},"Ț":{"ha":813,"x_min":0,"x_max":0,"o":"m 793 749 l 793 985 l 19 985 l 19 749 l 281 749 l 281 0 l 532 0 l 532 749 z m 564 -69 l 318 -69 l 233 -353 l 460 -353 z "},"U":{"ha":926,"x_min":0,"x_max":0,"o":"m 324 983 l 72 983 l 72 329 b 857 329 71 -132 856 -132 l 857 983 l 606 983 l 606 329 b 324 329 604 171 324 171 z "},"Ú":{"ha":926,"x_min":0,"x_max":0,"o":"m 719 1281 l 461 1281 l 322 1050 l 538 1050 z m 324 983 l 72 983 l 72 329 b 857 329 71 -132 856 -132 l 857 983 l 606 983 l 606 329 b 324 329 604 171 324 171 z "},"Û":{"ha":926,"x_min":0,"x_max":0,"o":"m 546 1283 l 383 1283 l 169 1050 l 404 1050 l 465 1122 l 529 1050 l 754 1050 z m 324 983 l 72 983 l 72 329 b 857 329 71 -132 856 -132 l 857 983 l 606 983 l 606 329 b 324 329 604 171 324 171 z "},"Ü":{"ha":926,"x_min":0,"x_max":0,"o":"m 181 1158 b 297 1043 181 1094 232 1043 b 414 1158 363 1043 414 1094 b 297 1276 414 1225 363 1276 b 181 1158 232 1276 181 1225 z m 515 1158 b 632 1043 515 1094 564 1043 b 750 1158 699 1043 750 1094 b 632 1276 750 1225 699 1276 b 515 1158 564 1276 515 1225 z m 324 983 l 72 983 l 72 329 b 857 329 71 -132 856 -132 l 857 983 l 606 983 l 606 329 b 324 329 604 171 324 171 z "},"Ù":{"ha":926,"x_min":0,"x_max":0,"o":"m 607 1050 l 468 1281 l 210 1281 l 392 1050 z m 324 983 l 72 983 l 72 329 b 857 329 71 -132 856 -132 l 857 983 l 606 983 l 606 329 b 324 329 604 171 324 171 z "},"Ű":{"ha":926,"x_min":0,"x_max":0,"o":"m 546 1269 l 300 1269 l 196 1050 l 392 1050 z m 868 1269 l 614 1269 l 511 1050 l 706 1050 z m 324 983 l 72 983 l 72 329 b 857 329 71 -132 856 -132 l 857 983 l 606 983 l 606 329 b 324 329 604 171 324 171 z "},"Ū":{"ha":926,"x_min":0,"x_max":0,"o":"m 257 1053 l 669 1053 l 669 1239 l 257 1239 z m 324 983 l 72 983 l 72 329 b 857 329 71 -132 856 -132 l 857 983 l 606 983 l 606 329 b 324 329 604 171 324 171 z "},"Ų":{"ha":926,"x_min":0,"x_max":0,"o":"m 856 983 l 604 983 l 604 329 b 322 329 603 171 322 171 l 322 983 l 71 983 l 71 329 b 461 -17 71 99 265 -17 b 574 -339 332 -187 390 -339 b 733 -283 622 -339 686 -322 l 694 -135 b 639 -154 672 -149 654 -154 b 678 35 579 -156 581 -36 b 856 329 781 89 856 188 z "},"Ů":{"ha":926,"x_min":0,"x_max":0,"o":"m 282 1182 b 467 1019 282 1089 365 1019 b 647 1182 565 1019 647 1092 b 467 1347 647 1268 568 1347 b 282 1182 365 1347 282 1275 z m 517 1181 b 467 1135 517 1151 494 1135 b 414 1181 433 1135 414 1160 b 467 1232 414 1207 433 1232 b 517 1181 494 1232 517 1207 z m 324 983 l 72 983 l 72 329 b 857 329 71 -132 856 -132 l 857 983 l 606 983 l 606 329 b 324 329 604 171 324 171 z "},"V":{"ha":911,"x_min":0,"x_max":0,"o":"m 501 503 l 457 271 l 453 271 l 408 504 l 254 985 l -12 985 l 342 1 l 569 1 l 924 985 l 657 985 z "},"W":{"ha":1271,"x_min":0,"x_max":0,"o":"m 894 510 l 867 304 l 863 304 l 831 510 l 729 856 l 540 856 l 431 511 l 407 304 l 400 304 l 375 513 l 258 983 l 0 983 l 285 0 l 515 0 l 593 274 l 631 497 l 635 497 l 669 272 l 757 0 l 988 0 l 1271 983 l 1014 983 z "},"Ẃ":{"ha":1271,"x_min":0,"x_max":0,"o":"m 894 1281 l 636 1281 l 497 1050 l 713 1050 z m 894 510 l 867 304 l 863 304 l 831 510 l 729 856 l 540 856 l 431 511 l 407 304 l 400 304 l 375 513 l 258 983 l 0 983 l 285 0 l 515 0 l 593 274 l 631 497 l 635 497 l 669 272 l 757 0 l 988 0 l 1271 983 l 1014 983 z "},"Ŵ":{"ha":1271,"x_min":0,"x_max":0,"o":"m 721 1283 l 558 1283 l 344 1050 l 579 1050 l 640 1122 l 704 1050 l 929 1050 z m 894 510 l 867 304 l 863 304 l 831 510 l 729 856 l 540 856 l 431 511 l 407 304 l 400 304 l 375 513 l 258 983 l 0 983 l 285 0 l 515 0 l 593 274 l 631 497 l 635 497 l 669 272 l 757 0 l 988 0 l 1271 983 l 1014 983 z "},"Ẅ":{"ha":1271,"x_min":0,"x_max":0,"o":"m 356 1158 b 472 1043 356 1094 407 1043 b 589 1158 538 1043 589 1094 b 472 1276 589 1225 538 1276 b 356 1158 407 1276 356 1225 z m 690 1158 b 807 1043 690 1094 739 1043 b 925 1158 874 1043 925 1094 b 807 1276 925 1225 874 1276 b 690 1158 739 1276 690 1225 z m 894 510 l 867 304 l 863 304 l 831 510 l 729 856 l 540 856 l 431 511 l 407 304 l 400 304 l 375 513 l 258 983 l 0 983 l 285 0 l 515 0 l 593 274 l 631 497 l 635 497 l 669 272 l 757 0 l 988 0 l 1271 983 l 1014 983 z "},"Ẁ":{"ha":1271,"x_min":0,"x_max":0,"o":"m 782 1050 l 643 1281 l 385 1281 l 567 1050 z m 894 510 l 867 304 l 863 304 l 831 510 l 729 856 l 540 856 l 431 511 l 407 304 l 400 304 l 375 513 l 258 983 l 0 983 l 285 0 l 515 0 l 593 274 l 631 497 l 635 497 l 669 272 l 757 0 l 988 0 l 1271 983 l 1014 983 z "},"X":{"ha":911,"x_min":0,"x_max":0,"o":"m 454 647 l 286 983 l -4 983 l 272 490 l -4 0 l 286 0 l 454 335 l 626 0 l 915 0 l 640 490 l 915 983 l 626 983 z "},"Y":{"ha":910,"x_min":0,"x_max":0,"o":"m 579 0 l 579 388 l 924 983 l 632 983 l 454 622 l 276 983 l -12 983 l 331 388 l 331 0 z "},"Ý":{"ha":910,"x_min":0,"x_max":0,"o":"m 704 1281 l 446 1281 l 307 1050 l 522 1050 z m 579 0 l 579 388 l 924 983 l 632 983 l 454 622 l 276 983 l -12 983 l 331 388 l 331 0 z "},"Ŷ":{"ha":910,"x_min":0,"x_max":0,"o":"m 531 1283 l 368 1283 l 154 1050 l 389 1050 l 450 1122 l 514 1050 l 739 1050 z m 579 0 l 579 388 l 924 983 l 632 983 l 454 622 l 276 983 l -12 983 l 331 388 l 331 0 z "},"Ÿ":{"ha":910,"x_min":0,"x_max":0,"o":"m 165 1158 b 282 1043 165 1094 217 1043 b 399 1158 347 1043 399 1094 b 282 1276 399 1225 347 1276 b 165 1158 217 1276 165 1225 z m 500 1158 b 617 1043 500 1094 549 1043 b 735 1158 683 1043 735 1094 b 617 1276 735 1225 683 1276 b 500 1158 549 1276 500 1225 z m 579 0 l 579 388 l 924 983 l 632 983 l 454 622 l 276 983 l -12 983 l 331 388 l 331 0 z "},"Ỳ":{"ha":910,"x_min":0,"x_max":0,"o":"m 592 1050 l 453 1281 l 194 1281 l 376 1050 z m 579 0 l 579 388 l 924 983 l 632 983 l 454 622 l 276 983 l -12 983 l 331 388 l 331 0 z "},"Z":{"ha":840,"x_min":0,"x_max":0,"o":"m 50 983 l 50 753 l 444 753 l 19 92 l 65 0 l 794 0 l 794 229 l 394 226 l 818 900 l 765 983 z "},"Ź":{"ha":840,"x_min":0,"x_max":0,"o":"m 686 1281 l 428 1281 l 289 1050 l 504 1050 z m 50 983 l 50 753 l 444 753 l 19 92 l 65 0 l 794 0 l 794 229 l 394 226 l 818 900 l 765 983 z "},"Ž":{"ha":840,"x_min":0,"x_max":0,"o":"m 142 1283 l 350 1050 l 519 1050 l 728 1283 l 496 1283 l 432 1211 l 375 1283 z m 50 983 l 50 753 l 444 753 l 19 92 l 65 0 l 794 0 l 794 229 l 394 226 l 818 900 l 765 983 z "},"Ż":{"ha":840,"x_min":0,"x_max":0,"o":"m 294 1182 b 432 1046 294 1106 354 1046 b 567 1182 510 1046 567 1106 b 432 1317 567 1257 510 1317 b 294 1182 354 1317 294 1257 z m 50 983 l 50 753 l 444 753 l 19 92 l 65 0 l 794 0 l 794 229 l 394 226 l 818 900 l 765 983 z "},"a":{"ha":900,"x_min":0,"x_max":0,"o":"m 561 983 l 335 983 l -8 0 l 258 0 l 319 197 l 582 197 l 646 0 l 913 0 z m 375 418 l 447 706 l 454 706 l 522 418 z "},"á":{"ha":900,"x_min":0,"x_max":0,"o":"m 704 1281 l 446 1281 l 307 1050 l 522 1050 z m 561 983 l 335 983 l -8 0 l 258 0 l 319 197 l 582 197 l 646 0 l 913 0 z m 375 418 l 447 706 l 454 706 l 522 418 z "},"ă":{"ha":900,"x_min":0,"x_max":0,"o":"m 503 1281 b 394 1281 503 1210 394 1210 l 204 1281 b 690 1281 204 958 690 958 z m 561 983 l 335 983 l -8 0 l 258 0 l 319 197 l 582 197 l 646 0 l 913 0 z m 375 418 l 447 706 l 454 706 l 522 418 z "},"â":{"ha":900,"x_min":0,"x_max":0,"o":"m 531 1283 l 368 1283 l 154 1050 l 389 1050 l 450 1122 l 514 1050 l 739 1050 z m 561 983 l 335 983 l -8 0 l 258 0 l 319 197 l 582 197 l 646 0 l 913 0 z m 375 418 l 447 706 l 454 706 l 522 418 z "},"ä":{"ha":900,"x_min":0,"x_max":0,"o":"m 165 1158 b 282 1043 165 1094 217 1043 b 399 1158 347 1043 399 1094 b 282 1276 399 1225 347 1276 b 165 1158 217 1276 165 1225 z m 500 1158 b 617 1043 500 1094 549 1043 b 735 1158 683 1043 735 1094 b 617 1276 735 1225 683 1276 b 500 1158 549 1276 500 1225 z m 561 983 l 335 983 l -8 0 l 258 0 l 319 197 l 582 197 l 646 0 l 913 0 z m 375 418 l 447 706 l 454 706 l 522 418 z "},"à":{"ha":900,"x_min":0,"x_max":0,"o":"m 592 1050 l 453 1281 l 194 1281 l 376 1050 z m 561 983 l 335 983 l -8 0 l 258 0 l 319 197 l 582 197 l 646 0 l 913 0 z m 375 418 l 447 706 l 454 706 l 522 418 z "},"ā":{"ha":900,"x_min":0,"x_max":0,"o":"m 242 1053 l 654 1053 l 654 1239 l 242 1239 z m 561 983 l 335 983 l -8 0 l 258 0 l 319 197 l 582 197 l 646 0 l 913 0 z m 375 418 l 447 706 l 454 706 l 522 418 z "},"ą":{"ha":900,"x_min":0,"x_max":0,"o":"m 938 -135 b 882 -154 915 -149 897 -154 b 913 0 825 -156 822 -82 l 561 983 l 335 983 l -8 0 l 258 0 l 319 197 l 582 197 l 646 0 l 721 0 b 817 -339 574 -178 628 -339 b 976 -283 865 -339 929 -322 z m 375 418 l 447 706 l 454 706 l 522 418 z "},"å":{"ha":900,"x_min":0,"x_max":0,"o":"m 646 0 l 913 0 l 572 954 b 629 1083 607 986 629 1033 b 451 1265 629 1175 553 1265 b 269 1085 350 1265 269 1183 b 325 956 269 1033 290 988 l -8 0 l 258 0 l 319 197 l 582 197 z m 451 1138 b 501 1082 479 1138 501 1111 b 451 1033 501 1051 479 1033 b 399 1082 418 1033 399 1061 b 451 1138 399 1111 418 1138 z m 454 706 l 522 418 l 375 418 l 447 706 z "},"ã":{"ha":900,"x_min":0,"x_max":0,"o":"m 304 1040 b 546 1038 360 1149 435 1038 b 690 1194 614 1036 664 1092 l 564 1267 b 360 1272 519 1163 442 1271 b 183 1108 265 1275 204 1219 z m 561 983 l 335 983 l -8 0 l 258 0 l 319 197 l 582 197 l 646 0 l 913 0 z m 375 418 l 447 706 l 454 706 l 522 418 z "},"æ":{"ha":1158,"x_min":0,"x_max":0,"o":"m 1103 739 l 1103 983 l 401 983 l -18 0 l 281 0 l 376 267 l 526 267 l 526 0 l 1103 0 l 1103 238 l 763 238 l 763 369 l 1068 369 l 1068 610 l 763 610 l 763 739 z m 439 479 l 533 729 l 544 729 l 539 479 z "},"b":{"ha":867,"x_min":0,"x_max":0,"o":"m 792 683 b 472 983 797 871 660 983 l 78 983 l 78 0 l 479 0 b 829 254 697 0 804 96 b 690 524 842 329 825 456 b 792 683 761 560 790 639 z m 328 599 l 328 774 l 472 774 b 472 599 597 774 593 599 z m 328 218 l 328 419 l 472 419 b 472 218 619 419 622 218 z "},"c":{"ha":808,"x_min":0,"x_max":0,"o":"m 579 307 b 303 322 525 171 303 204 l 303 661 b 589 689 303 783 522 811 l 792 771 b 446 997 713 946 567 997 b 54 661 249 997 54 883 l 54 322 b 442 -14 54 99 249 -14 b 796 207 565 -14 714 47 z "},"ć":{"ha":808,"x_min":0,"x_max":0,"o":"m 700 1281 l 442 1281 l 303 1050 l 518 1050 z m 579 307 b 303 322 525 171 303 204 l 303 661 b 589 689 303 783 522 811 l 792 771 b 446 997 713 946 567 997 b 54 661 249 997 54 883 l 54 322 b 442 -14 54 99 249 -14 b 796 207 565 -14 714 47 z "},"č":{"ha":808,"x_min":0,"x_max":0,"o":"m 156 1283 l 364 1050 l 533 1050 l 742 1283 l 510 1283 l 446 1211 l 389 1283 z m 579 307 b 303 322 525 171 303 204 l 303 661 b 589 689 303 783 522 811 l 792 771 b 446 997 713 946 567 997 b 54 661 249 997 54 883 l 54 322 b 442 -14 54 99 249 -14 b 796 207 565 -14 714 47 z "},"ç":{"ha":808,"x_min":0,"x_max":0,"o":"m 579 307 b 303 322 525 171 303 204 l 303 661 b 589 689 303 783 522 811 l 792 771 b 446 997 713 946 567 997 b 54 661 249 997 54 883 l 54 322 b 361 -7 54 131 197 19 l 318 -103 b 424 -175 390 -108 433 -143 b 269 -162 410 -226 331 -204 l 225 -282 b 428 -353 294 -339 367 -353 b 518 -43 629 -353 704 -92 l 536 -3 b 796 207 635 22 735 86 z "},"ċ":{"ha":808,"x_min":0,"x_max":0,"o":"m 308 1182 b 446 1046 308 1106 368 1046 b 581 1182 524 1046 581 1106 b 446 1317 581 1257 524 1317 b 308 1182 368 1317 308 1257 z m 579 307 b 303 322 525 171 303 204 l 303 661 b 589 689 303 783 522 811 l 792 771 b 446 997 713 946 567 997 b 54 661 249 997 54 883 l 54 322 b 442 -14 54 99 249 -14 b 796 207 565 -14 714 47 z "},"d":{"ha":883,"x_min":0,"x_max":0,"o":"m 78 983 l 78 0 l 446 0 b 828 324 643 -1 828 97 l 828 654 b 446 983 828 883 643 983 z m 328 233 l 328 751 l 454 751 b 578 647 538 751 578 711 l 578 340 b 454 233 578 276 539 233 z "},"ð":{"ha":892,"x_min":0,"x_max":0,"o":"m 86 594 l 19 594 l 19 396 l 86 396 l 86 0 l 483 0 b 836 324 682 0 836 97 l 836 658 b 483 983 836 888 682 983 l 86 983 z m 338 244 l 338 396 l 453 396 l 453 594 l 338 594 l 338 739 l 483 739 b 586 658 549 739 586 713 l 586 324 b 483 244 586 271 549 244 z "},"ď":{"ha":883,"x_min":0,"x_max":0,"o":"m 111 1283 l 319 1050 l 489 1050 l 697 1283 l 465 1283 l 401 1211 l 344 1283 z m 78 983 l 78 0 l 446 0 b 828 324 643 -1 828 97 l 828 654 b 446 983 828 883 643 983 z m 328 233 l 328 751 l 454 751 b 578 647 538 751 578 711 l 578 340 b 454 233 578 276 539 233 z "},"đ":{"ha":892,"x_min":0,"x_max":0,"o":"m 86 594 l 19 594 l 19 396 l 86 396 l 86 0 l 483 0 b 836 324 682 0 836 97 l 836 658 b 483 983 836 888 682 983 l 86 983 z m 338 244 l 338 396 l 453 396 l 453 594 l 338 594 l 338 739 l 483 739 b 586 658 549 739 586 713 l 586 324 b 483 244 586 271 549 244 z "},"e":{"ha":817,"x_min":0,"x_max":0,"o":"m 329 750 l 763 750 l 763 983 l 78 983 l 78 0 l 763 0 l 763 235 l 329 235 l 329 382 l 728 382 l 728 597 l 329 597 z "},"é":{"ha":817,"x_min":0,"x_max":0,"o":"m 683 1281 l 425 1281 l 286 1050 l 501 1050 z m 329 750 l 763 750 l 763 983 l 78 983 l 78 0 l 763 0 l 763 235 l 329 235 l 329 382 l 728 382 l 728 597 l 329 597 z "},"ě":{"ha":817,"x_min":0,"x_max":0,"o":"m 139 1283 l 347 1050 l 517 1050 l 725 1283 l 493 1283 l 429 1211 l 372 1283 z m 329 750 l 763 750 l 763 983 l 78 983 l 78 0 l 763 0 l 763 235 l 329 235 l 329 382 l 728 382 l 728 597 l 329 597 z "},"ê":{"ha":817,"x_min":0,"x_max":0,"o":"m 510 1283 l 347 1283 l 133 1050 l 368 1050 l 429 1122 l 493 1050 l 718 1050 z m 329 750 l 763 750 l 763 983 l 78 983 l 78 0 l 763 0 l 763 235 l 329 235 l 329 382 l 728 382 l 728 597 l 329 597 z "},"ë":{"ha":817,"x_min":0,"x_max":0,"o":"m 144 1158 b 261 1043 144 1094 196 1043 b 378 1158 326 1043 378 1094 b 261 1276 378 1225 326 1276 b 144 1158 196 1276 144 1225 z m 479 1158 b 596 1043 479 1094 528 1043 b 714 1158 663 1043 714 1094 b 596 1276 714 1225 663 1276 b 479 1158 528 1276 479 1225 z m 329 750 l 763 750 l 763 983 l 78 983 l 78 0 l 763 0 l 763 235 l 329 235 l 329 382 l 728 382 l 728 597 l 329 597 z "},"ė":{"ha":817,"x_min":0,"x_max":0,"o":"m 292 1182 b 429 1046 292 1106 351 1046 b 564 1182 507 1046 564 1106 b 429 1317 564 1257 507 1317 b 292 1182 351 1317 292 1257 z m 329 750 l 763 750 l 763 983 l 78 983 l 78 0 l 763 0 l 763 235 l 329 235 l 329 382 l 728 382 l 728 597 l 329 597 z "},"è":{"ha":817,"x_min":0,"x_max":0,"o":"m 571 1050 l 432 1281 l 174 1281 l 356 1050 z m 329 750 l 763 750 l 763 983 l 78 983 l 78 0 l 763 0 l 763 235 l 329 235 l 329 382 l 728 382 l 728 597 l 329 597 z "},"ē":{"ha":817,"x_min":0,"x_max":0,"o":"m 221 1053 l 633 1053 l 633 1239 l 221 1239 z m 329 750 l 763 750 l 763 983 l 78 983 l 78 0 l 763 0 l 763 235 l 329 235 l 329 382 l 728 382 l 728 597 l 329 597 z "},"ę":{"ha":817,"x_min":0,"x_max":0,"o":"m 789 -135 b 733 -154 767 -149 749 -154 b 763 0 676 -156 674 -85 l 763 235 l 329 235 l 329 382 l 728 382 l 728 597 l 329 597 l 329 750 l 763 750 l 763 983 l 78 983 l 78 0 l 572 0 b 668 -339 425 -178 479 -339 b 828 -283 717 -339 781 -322 z "},"f":{"ha":800,"x_min":0,"x_max":0,"o":"m 329 747 l 763 747 l 763 983 l 78 983 l 78 0 l 329 0 l 329 339 l 708 339 l 708 571 l 329 571 z "},"g":{"ha":867,"x_min":0,"x_max":0,"o":"m 785 788 b 443 997 717 944 571 997 b 54 664 249 997 54 886 l 54 326 b 443 -14 54 100 249 -14 b 829 326 640 -14 829 100 l 829 571 l 433 571 l 433 363 l 590 363 l 590 326 b 303 326 590 174 303 172 l 303 664 b 576 692 303 793 522 824 z "},"ğ":{"ha":867,"x_min":0,"x_max":0,"o":"m 496 1281 b 388 1281 496 1210 388 1210 l 197 1281 b 683 1281 197 958 683 958 z m 785 788 b 443 997 717 944 571 997 b 54 664 249 997 54 886 l 54 326 b 443 -14 54 100 249 -14 b 829 326 640 -14 829 100 l 829 571 l 433 571 l 433 363 l 590 363 l 590 326 b 303 326 590 174 303 172 l 303 664 b 576 692 303 793 522 824 z "},"ģ":{"ha":867,"x_min":0,"x_max":0,"o":"m 785 788 b 443 997 717 944 571 997 b 54 664 249 997 54 886 l 54 326 b 443 -14 54 100 249 -14 b 829 326 640 -14 829 100 l 829 571 l 433 571 l 433 363 l 590 363 l 590 326 b 303 326 590 174 303 172 l 303 664 b 576 692 303 793 522 824 z m 594 -64 l 349 -64 l 264 -347 l 490 -347 z "},"ġ":{"ha":867,"x_min":0,"x_max":0,"o":"m 306 1182 b 443 1046 306 1106 365 1046 b 578 1182 521 1046 578 1106 b 443 1317 578 1257 521 1317 b 306 1182 365 1317 306 1257 z m 785 788 b 443 997 717 944 571 997 b 54 664 249 997 54 886 l 54 326 b 443 -14 54 100 249 -14 b 829 326 640 -14 829 100 l 829 571 l 433 571 l 433 363 l 590 363 l 590 326 b 303 326 590 174 303 172 l 303 664 b 576 692 303 793 522 824 z "},"h":{"ha":939,"x_min":0,"x_max":0,"o":"m 328 371 l 611 371 l 611 0 l 861 0 l 861 983 l 611 983 l 611 611 l 328 611 l 328 983 l 78 983 l 78 0 l 328 0 z "},"ħ":{"ha":968,"x_min":0,"x_max":0,"o":"m 876 719 l 957 719 l 957 864 l 876 864 l 876 983 l 626 983 l 626 864 l 343 864 l 343 983 l 93 983 l 93 864 l 11 864 l 11 719 l 93 719 l 93 0 l 343 0 l 343 371 l 626 371 l 626 0 l 876 0 z m 343 719 l 626 719 l 626 611 l 343 611 z "},"i":{"ha":404,"x_min":0,"x_max":0,"o":"m 326 983 l 78 983 l 78 0 l 326 0 z "},"ı":{"ha":404,"x_min":0,"x_max":0,"o":"m 326 983 l 78 983 l 78 0 l 326 0 z "},"í":{"ha":404,"x_min":0,"x_max":0,"o":"m 457 1281 l 199 1281 l 60 1050 l 275 1050 z m 326 983 l 78 983 l 78 0 l 326 0 z "},"î":{"ha":404,"x_min":0,"x_max":0,"o":"m 283 1283 l 121 1283 l -79 1050 l 156 1050 l 203 1119 l 253 1050 l 478 1050 z m 326 983 l 78 983 l 78 0 l 326 0 z "},"ï":{"ha":404,"x_min":0,"x_max":0,"o":"m -60 1158 b 57 1043 -60 1094 -8 1043 b 174 1158 122 1043 174 1094 b 57 1276 174 1225 122 1276 b -60 1158 -8 1276 -60 1225 z m 233 1158 b 350 1043 233 1094 282 1043 b 468 1158 417 1043 468 1094 b 350 1276 468 1225 417 1276 b 233 1158 282 1276 233 1225 z m 326 983 l 78 983 l 78 0 l 326 0 z "},"ì":{"ha":404,"x_min":0,"x_max":0,"o":"m 344 1050 l 206 1281 l -53 1281 l 129 1050 z m 326 983 l 78 983 l 78 0 l 326 0 z "},"ĳ":{"ha":1219,"x_min":0,"x_max":0,"o":"m 326 983 l 78 983 l 78 0 l 326 0 z m 408 289 b 774 -14 436 81 604 -14 b 1149 321 961 -14 1149 107 l 1149 983 l 679 983 l 679 758 l 903 758 l 903 321 b 783 226 903 264 844 226 b 643 338 722 226 657 258 z "},"ī":{"ha":404,"x_min":0,"x_max":0,"o":"m -6 1053 l 407 1053 l 407 1239 l -6 1239 z m 326 983 l 78 983 l 78 0 l 326 0 z "},"į":{"ha":404,"x_min":0,"x_max":0,"o":"m 350 -135 b 294 -154 328 -149 310 -154 b 326 0 235 -156 244 -71 l 326 983 l 78 983 l 78 0 l 133 0 b 229 -339 -14 -178 40 -339 b 389 -283 278 -339 342 -322 z "},"j":{"ha":815,"x_min":0,"x_max":0,"o":"m 4 289 b 369 -14 32 81 200 -14 b 744 321 557 -14 744 107 l 744 983 l 275 983 l 275 758 l 499 758 l 499 321 b 379 226 499 264 440 226 b 239 338 318 226 253 258 z "},"k":{"ha":889,"x_min":0,"x_max":0,"o":"m 328 619 l 328 983 l 78 983 l 78 0 l 328 0 l 328 340 l 336 351 l 588 0 l 903 0 l 515 508 l 904 983 l 594 983 z "},"ķ":{"ha":889,"x_min":0,"x_max":0,"o":"m 328 619 l 328 983 l 78 983 l 78 0 l 328 0 l 328 340 l 336 351 l 588 0 l 903 0 l 515 508 l 904 983 l 594 983 z m 607 -69 l 361 -69 l 276 -353 l 503 -353 z "},"l":{"ha":749,"x_min":0,"x_max":0,"o":"m 78 0 l 728 0 l 728 246 l 328 246 l 328 983 l 78 983 z "},"ĺ":{"ha":749,"x_min":0,"x_max":0,"o":"m 460 1281 l 201 1281 l 63 1050 l 278 1050 z m 78 0 l 728 0 l 728 246 l 328 246 l 328 983 l 78 983 z "},"ľ":{"ha":763,"x_min":0,"x_max":0,"o":"m 78 0 l 728 0 l 728 246 l 328 246 l 328 983 l 78 983 z m 756 978 l 524 978 l 439 694 l 651 694 z "},"ļ":{"ha":749,"x_min":0,"x_max":0,"o":"m 78 0 l 728 0 l 728 246 l 328 246 l 328 983 l 78 983 z m 564 -69 l 318 -69 l 233 -353 l 460 -353 z "},"ŀ":{"ha":761,"x_min":0,"x_max":0,"o":"m 78 0 l 728 0 l 728 246 l 328 246 l 328 983 l 78 983 z m 407 528 b 542 397 407 454 463 397 b 672 528 617 397 672 454 b 542 663 672 603 617 663 b 407 528 463 663 407 603 z "},"ł":{"ha":792,"x_min":0,"x_max":0,"o":"m 753 253 l 372 253 l 372 464 l 617 565 l 551 721 l 372 647 l 372 983 l 121 983 l 121 540 l 1 490 l 64 333 l 121 357 l 121 0 l 753 0 z "},"m":{"ha":1068,"x_min":0,"x_max":0,"o":"m 78 0 l 326 0 l 326 283 l 310 482 l 317 483 l 449 146 l 619 146 l 749 483 l 757 482 l 742 283 l 740 0 l 990 0 l 990 983 l 742 983 l 533 503 l 326 983 l 78 983 z "},"n":{"ha":939,"x_min":0,"x_max":0,"o":"m 78 0 l 326 0 l 326 393 l 294 583 l 301 585 l 388 388 l 610 0 l 861 0 l 861 983 l 614 983 l 614 538 b 642 368 615 538 640 368 l 635 367 l 551 564 l 314 983 l 78 983 z "},"ń":{"ha":939,"x_min":0,"x_max":0,"o":"m 726 1281 l 468 1281 l 329 1050 l 544 1050 z m 78 0 l 326 0 l 326 393 l 294 583 l 301 585 l 388 388 l 610 0 l 861 0 l 861 983 l 614 983 l 614 538 b 642 368 615 538 640 368 l 635 367 l 551 564 l 314 983 l 78 983 z "},"ň":{"ha":939,"x_min":0,"x_max":0,"o":"m 182 1283 l 390 1050 l 560 1050 l 768 1283 l 536 1283 l 472 1211 l 415 1283 z m 78 0 l 326 0 l 326 393 l 294 583 l 301 585 l 388 388 l 610 0 l 861 0 l 861 983 l 614 983 l 614 538 b 642 368 615 538 640 368 l 635 367 l 551 564 l 314 983 l 78 983 z "},"ņ":{"ha":939,"x_min":0,"x_max":0,"o":"m 78 0 l 326 0 l 326 393 l 294 583 l 301 585 l 388 388 l 610 0 l 861 0 l 861 983 l 614 983 l 614 538 b 642 368 615 538 640 368 l 635 367 l 551 564 l 314 983 l 78 983 z m 632 -69 l 386 -69 l 301 -353 l 528 -353 z "},"ŋ":{"ha":939,"x_min":0,"x_max":0,"o":"m 861 983 l 614 983 l 614 549 b 639 379 615 549 638 379 l 635 378 l 551 575 l 314 983 l 78 983 l 78 0 l 326 0 l 326 393 l 296 583 l 301 585 l 388 388 l 626 10 l 626 -4 b 521 -75 626 -47 590 -92 l 521 -279 b 861 -7 714 -329 861 -218 z "},"ñ":{"ha":939,"x_min":0,"x_max":0,"o":"m 331 1035 b 572 1032 386 1143 461 1032 b 717 1189 640 1031 690 1086 l 590 1261 b 386 1267 546 1157 468 1265 b 210 1103 292 1269 231 1214 z m 78 0 l 326 0 l 326 393 l 294 583 l 301 585 l 388 388 l 610 0 l 861 0 l 861 983 l 614 983 l 614 538 b 642 368 615 538 640 368 l 635 367 l 551 564 l 314 983 l 78 983 z "},"o":{"ha":924,"x_min":0,"x_max":0,"o":"m 54 324 b 463 -14 54 99 258 -14 b 869 324 667 -14 869 99 l 869 660 b 461 997 869 885 665 997 b 54 660 257 997 54 886 z m 303 660 b 458 771 303 732 381 771 b 621 660 539 771 621 736 l 621 324 b 463 217 621 253 542 217 b 303 324 383 217 303 251 z "},"ó":{"ha":924,"x_min":0,"x_max":0,"o":"m 715 1283 l 457 1283 l 318 1053 l 533 1053 z m 54 324 b 463 -14 54 99 258 -14 b 869 324 667 -14 869 99 l 869 660 b 461 997 869 885 665 997 b 54 660 257 997 54 886 z m 303 660 b 458 771 303 732 381 771 b 621 660 539 771 621 736 l 621 324 b 463 217 621 253 542 217 b 303 324 383 217 303 251 z "},"ô":{"ha":924,"x_min":0,"x_max":0,"o":"m 542 1286 l 379 1286 l 165 1053 l 400 1053 l 461 1125 l 525 1053 l 750 1053 z m 54 324 b 463 -14 54 99 258 -14 b 869 324 667 -14 869 99 l 869 660 b 461 997 869 885 665 997 b 54 660 257 997 54 886 z m 303 660 b 458 771 303 732 381 771 b 621 660 539 771 621 736 l 621 324 b 463 217 621 253 542 217 b 303 324 383 217 303 251 z "},"ö":{"ha":924,"x_min":0,"x_max":0,"o":"m 176 1161 b 293 1046 176 1097 228 1046 b 410 1161 358 1046 410 1097 b 293 1279 410 1228 358 1279 b 176 1161 228 1279 176 1228 z m 511 1161 b 628 1046 511 1097 560 1046 b 746 1161 694 1046 746 1097 b 628 1279 746 1228 694 1279 b 511 1161 560 1279 511 1228 z m 54 324 b 463 -14 54 99 258 -14 b 869 324 667 -14 869 99 l 869 660 b 461 997 869 885 665 997 b 54 660 257 997 54 886 z m 303 660 b 458 771 303 732 381 771 b 621 660 539 771 621 736 l 621 324 b 463 217 621 253 542 217 b 303 324 383 217 303 251 z "},"ò":{"ha":924,"x_min":0,"x_max":0,"o":"m 603 1053 l 464 1283 l 206 1283 l 388 1053 z m 54 324 b 463 -14 54 99 258 -14 b 869 324 667 -14 869 99 l 869 660 b 461 997 869 885 665 997 b 54 660 257 997 54 886 z m 303 660 b 458 771 303 732 381 771 b 621 660 539 771 621 736 l 621 324 b 463 217 621 253 542 217 b 303 324 383 217 303 251 z "},"ő":{"ha":924,"x_min":0,"x_max":0,"o":"m 542 1272 l 296 1272 l 192 1053 l 388 1053 z m 864 1272 l 610 1272 l 507 1053 l 701 1053 z m 54 324 b 463 -14 54 99 258 -14 b 869 324 667 -14 869 99 l 869 660 b 461 997 869 885 665 997 b 54 660 257 997 54 886 z m 303 660 b 458 771 303 732 381 771 b 621 660 539 771 621 736 l 621 324 b 463 217 621 253 542 217 b 303 324 383 217 303 251 z "},"ō":{"ha":924,"x_min":0,"x_max":0,"o":"m 253 1056 l 665 1056 l 665 1242 l 253 1242 z m 54 324 b 463 -14 54 99 258 -14 b 869 324 667 -14 869 99 l 869 660 b 461 997 869 885 665 997 b 54 660 257 997 54 886 z m 303 660 b 458 771 303 732 381 771 b 621 660 539 771 621 736 l 621 324 b 463 217 621 253 542 217 b 303 324 383 217 303 251 z "},"ø":{"ha":924,"x_min":0,"x_max":0,"o":"m 797 1050 l 579 1122 l 529 993 b 461 997 507 996 483 997 b 54 660 257 997 54 886 l 54 324 b 182 71 54 211 106 126 l 124 -65 l 343 -143 l 397 -10 b 463 -14 418 -12 440 -14 b 869 324 667 -14 869 99 l 869 660 b 743 913 869 772 819 856 z m 621 324 b 463 217 621 253 542 217 b 303 324 383 217 303 251 l 303 660 b 458 771 303 732 381 771 b 621 660 539 771 621 736 z "},"õ":{"ha":924,"x_min":0,"x_max":0,"o":"m 319 1038 b 561 1035 375 1146 450 1035 b 706 1192 629 1033 679 1089 l 579 1264 b 375 1269 535 1160 457 1268 b 199 1106 281 1272 219 1217 z m 54 324 b 463 -14 54 99 258 -14 b 869 324 667 -14 869 99 l 869 660 b 461 997 869 885 665 997 b 54 660 257 997 54 886 z m 303 660 b 458 771 303 732 381 771 b 621 660 539 771 621 736 l 621 324 b 463 217 621 253 542 217 b 303 324 383 217 303 251 z "},"œ":{"ha":1128,"x_min":0,"x_max":0,"o":"m 743 749 l 1074 749 l 1074 983 l 531 983 l 531 949 b 353 997 472 983 411 997 b 58 681 196 997 58 872 l 58 294 b 361 -14 58 114 163 -14 b 531 44 418 -14 478 3 l 531 0 l 1074 0 l 1074 233 l 743 233 l 743 376 l 1038 376 l 1038 603 l 743 603 z m 531 238 b 428 200 513 215 471 200 b 308 317 368 200 308 232 l 308 679 b 531 749 308 782 449 815 z "},"p":{"ha":858,"x_min":0,"x_max":0,"o":"m 78 0 l 326 0 l 326 288 l 472 288 b 831 636 710 288 831 461 b 471 983 831 810 711 983 l 78 983 z m 326 508 l 326 751 l 471 751 b 471 508 621 753 621 507 z "},"þ":{"ha":772,"x_min":0,"x_max":0,"o":"m 329 836 l 329 993 l 78 993 l 78 1 l 329 1 l 329 176 b 749 503 538 176 749 247 b 343 836 749 724 607 836 z m 329 610 b 329 396 565 636 565 368 z "},"q":{"ha":924,"x_min":0,"x_max":0,"o":"m 54 324 b 463 -14 54 99 258 -14 b 678 32 538 -14 613 1 l 758 -51 l 896 72 l 819 150 b 869 324 850 197 869 256 l 869 660 b 461 997 869 885 665 997 b 54 660 257 997 54 886 z m 303 660 b 621 660 303 807 621 811 l 621 351 l 553 421 l 415 301 l 496 218 b 303 324 415 183 303 233 z "},"r":{"ha":897,"x_min":0,"x_max":0,"o":"m 601 0 l 911 0 l 643 338 b 836 660 763 375 836 478 b 471 983 831 890 674 983 l 78 983 l 78 0 l 329 0 l 329 313 l 374 313 z m 329 526 l 329 751 l 475 751 b 475 526 632 751 632 526 z "},"ŕ":{"ha":897,"x_min":0,"x_max":0,"o":"m 681 1281 l 422 1281 l 283 1050 l 499 1050 z m 601 0 l 911 0 l 643 338 b 836 660 763 375 836 478 b 471 983 831 890 674 983 l 78 983 l 78 0 l 329 0 l 329 313 l 374 313 z m 329 526 l 329 751 l 475 751 b 475 526 632 751 632 526 z "},"ř":{"ha":897,"x_min":0,"x_max":0,"o":"m 136 1283 l 344 1050 l 514 1050 l 722 1283 l 490 1283 l 426 1211 l 369 1283 z m 601 0 l 911 0 l 643 338 b 836 660 763 375 836 478 b 471 983 831 890 674 983 l 78 983 l 78 0 l 329 0 l 329 313 l 374 313 z m 329 526 l 329 751 l 475 751 b 475 526 632 751 632 526 z "},"ŗ":{"ha":897,"x_min":0,"x_max":0,"o":"m 601 0 l 911 0 l 643 338 b 836 660 763 375 836 478 b 471 983 831 890 674 983 l 78 983 l 78 0 l 329 0 l 329 313 l 374 313 z m 329 526 l 329 751 l 475 751 b 475 526 632 751 632 526 z m 615 -69 l 369 -69 l 285 -353 l 511 -353 z "},"s":{"ha":783,"x_min":0,"x_max":0,"o":"m 31 164 b 365 -14 122 46 247 -14 b 754 281 546 -14 746 90 b 415 615 765 522 590 583 b 285 707 339 632 288 660 b 568 715 289 821 465 825 l 731 840 b 394 997 629 964 514 997 b 39 703 214 997 39 896 b 342 390 39 515 183 415 b 510 292 422 379 513 347 b 188 311 503 186 286 192 z "},"ś":{"ha":783,"x_min":0,"x_max":0,"o":"m 649 1281 l 390 1281 l 251 1050 l 467 1050 z m 31 164 b 365 -14 122 46 247 -14 b 754 281 546 -14 746 90 b 415 615 765 522 590 583 b 285 707 339 632 288 660 b 568 715 289 821 465 825 l 731 840 b 394 997 629 964 514 997 b 39 703 214 997 39 896 b 342 390 39 515 183 415 b 510 292 422 379 513 347 b 188 311 503 186 286 192 z "},"š":{"ha":783,"x_min":0,"x_max":0,"o":"m 104 1283 l 313 1050 l 482 1050 l 690 1283 l 458 1283 l 394 1211 l 338 1283 z m 31 164 b 365 -14 122 46 247 -14 b 754 281 546 -14 746 90 b 415 615 765 522 590 583 b 285 707 339 632 288 660 b 568 715 289 821 465 825 l 731 840 b 394 997 629 964 514 997 b 39 703 214 997 39 896 b 342 390 39 515 183 415 b 510 292 422 379 513 347 b 188 311 503 186 286 192 z "},"ş":{"ha":783,"x_min":0,"x_max":0,"o":"m 415 615 b 285 707 339 632 288 660 b 568 715 289 821 465 825 l 731 840 b 394 997 629 964 514 997 b 39 703 214 997 39 896 b 342 390 39 515 183 415 b 510 292 422 379 513 347 b 188 311 503 186 286 192 l 31 164 b 307 -10 107 65 207 7 l 265 -103 b 371 -175 338 -108 381 -143 b 217 -162 357 -226 278 -204 l 172 -282 b 375 -353 242 -339 314 -353 b 465 -43 576 -353 651 -92 l 485 1 b 754 281 625 36 747 132 b 415 615 765 522 590 583 z "},"ș":{"ha":783,"x_min":0,"x_max":0,"o":"m 31 164 b 365 -14 122 46 247 -14 b 754 281 546 -14 746 90 b 415 615 765 522 590 583 b 285 707 339 632 288 660 b 568 715 289 821 465 825 l 731 840 b 394 997 629 964 514 997 b 39 703 214 997 39 896 b 342 390 39 515 183 415 b 510 292 422 379 513 347 b 188 311 503 186 286 192 z m 528 -69 l 282 -69 l 197 -353 l 424 -353 z "},"ß":{"ha":800,"x_min":0,"x_max":0,"o":"m 67 0 l 301 0 l 301 694 b 392 778 301 750 346 778 b 346 603 514 778 507 569 l 346 392 l 408 392 b 508 308 464 392 508 361 b 346 218 508 238 429 176 l 346 -1 b 446 -14 381 -10 413 -14 b 719 119 554 -14 665 31 b 610 504 797 242 778 443 b 713 711 696 561 713 656 b 394 997 713 904 554 997 b 67 704 231 997 64 899 z "},"t":{"ha":813,"x_min":0,"x_max":0,"o":"m 793 749 l 793 985 l 19 985 l 19 749 l 281 749 l 281 0 l 532 0 l 532 749 z "},"ŧ":{"ha":818,"x_min":0,"x_max":0,"o":"m 535 479 l 535 749 l 796 749 l 796 985 l 22 985 l 22 749 l 283 749 l 283 479 l 172 479 l 172 293 l 283 293 l 283 0 l 535 0 l 535 293 l 640 293 l 640 479 z "},"ť":{"ha":813,"x_min":0,"x_max":0,"o":"m 110 1283 l 318 1050 l 488 1050 l 696 1283 l 464 1283 l 400 1211 l 343 1283 z m 793 749 l 793 985 l 19 985 l 19 749 l 281 749 l 281 0 l 532 0 l 532 749 z "},"ţ":{"ha":813,"x_min":0,"x_max":0,"o":"m 793 749 l 793 985 l 19 985 l 19 749 l 281 749 l 281 0 l 532 0 l 532 749 z m 564 -69 l 318 -69 l 233 -353 l 460 -353 z "},"ț":{"ha":813,"x_min":0,"x_max":0,"o":"m 793 749 l 793 985 l 19 985 l 19 749 l 281 749 l 281 0 l 532 0 l 532 749 z m 564 -69 l 318 -69 l 233 -353 l 460 -353 z "},"u":{"ha":926,"x_min":0,"x_max":0,"o":"m 324 983 l 72 983 l 72 329 b 857 329 71 -132 856 -132 l 857 983 l 606 983 l 606 329 b 324 329 604 171 324 171 z "},"ú":{"ha":926,"x_min":0,"x_max":0,"o":"m 719 1281 l 461 1281 l 322 1050 l 538 1050 z m 324 983 l 72 983 l 72 329 b 857 329 71 -132 856 -132 l 857 983 l 606 983 l 606 329 b 324 329 604 171 324 171 z "},"û":{"ha":926,"x_min":0,"x_max":0,"o":"m 546 1283 l 383 1283 l 169 1050 l 404 1050 l 465 1122 l 529 1050 l 754 1050 z m 324 983 l 72 983 l 72 329 b 857 329 71 -132 856 -132 l 857 983 l 606 983 l 606 329 b 324 329 604 171 324 171 z "},"ü":{"ha":926,"x_min":0,"x_max":0,"o":"m 181 1158 b 297 1043 181 1094 232 1043 b 414 1158 363 1043 414 1094 b 297 1276 414 1225 363 1276 b 181 1158 232 1276 181 1225 z m 515 1158 b 632 1043 515 1094 564 1043 b 750 1158 699 1043 750 1094 b 632 1276 750 1225 699 1276 b 515 1158 564 1276 515 1225 z m 324 983 l 72 983 l 72 329 b 857 329 71 -132 856 -132 l 857 983 l 606 983 l 606 329 b 324 329 604 171 324 171 z "},"ù":{"ha":926,"x_min":0,"x_max":0,"o":"m 607 1050 l 468 1281 l 210 1281 l 392 1050 z m 324 983 l 72 983 l 72 329 b 857 329 71 -132 856 -132 l 857 983 l 606 983 l 606 329 b 324 329 604 171 324 171 z "},"ű":{"ha":926,"x_min":0,"x_max":0,"o":"m 546 1269 l 300 1269 l 196 1050 l 392 1050 z m 868 1269 l 614 1269 l 511 1050 l 706 1050 z m 324 983 l 72 983 l 72 329 b 857 329 71 -132 856 -132 l 857 983 l 606 983 l 606 329 b 324 329 604 171 324 171 z "},"ū":{"ha":926,"x_min":0,"x_max":0,"o":"m 257 1053 l 669 1053 l 669 1239 l 257 1239 z m 324 983 l 72 983 l 72 329 b 857 329 71 -132 856 -132 l 857 983 l 606 983 l 606 329 b 324 329 604 171 324 171 z "},"ų":{"ha":926,"x_min":0,"x_max":0,"o":"m 856 983 l 604 983 l 604 329 b 322 329 603 171 322 171 l 322 983 l 71 983 l 71 329 b 461 -17 71 99 265 -17 b 574 -339 332 -187 390 -339 b 733 -283 622 -339 686 -322 l 694 -135 b 639 -154 672 -149 654 -154 b 678 35 579 -156 581 -36 b 856 329 781 89 856 188 z "},"ů":{"ha":926,"x_min":0,"x_max":0,"o":"m 282 1182 b 467 1019 282 1089 365 1019 b 647 1182 565 1019 647 1092 b 467 1347 647 1268 568 1347 b 282 1182 365 1347 282 1275 z m 517 1181 b 467 1135 517 1151 494 1135 b 414 1181 433 1135 414 1160 b 467 1232 414 1207 433 1232 b 517 1181 494 1232 517 1207 z m 324 983 l 72 983 l 72 329 b 857 329 71 -132 856 -132 l 857 983 l 606 983 l 606 329 b 324 329 604 171 324 171 z "},"v":{"ha":911,"x_min":0,"x_max":0,"o":"m 501 503 l 457 271 l 453 271 l 408 504 l 254 985 l -12 985 l 342 1 l 569 1 l 924 985 l 657 985 z "},"w":{"ha":1271,"x_min":0,"x_max":0,"o":"m 894 510 l 867 304 l 863 304 l 831 510 l 729 856 l 540 856 l 431 511 l 407 304 l 400 304 l 375 513 l 258 983 l 0 983 l 285 0 l 515 0 l 593 274 l 631 497 l 635 497 l 669 272 l 757 0 l 988 0 l 1271 983 l 1014 983 z "},"ẃ":{"ha":1271,"x_min":0,"x_max":0,"o":"m 894 1281 l 636 1281 l 497 1050 l 713 1050 z m 894 510 l 867 304 l 863 304 l 831 510 l 729 856 l 540 856 l 431 511 l 407 304 l 400 304 l 375 513 l 258 983 l 0 983 l 285 0 l 515 0 l 593 274 l 631 497 l 635 497 l 669 272 l 757 0 l 988 0 l 1271 983 l 1014 983 z "},"ŵ":{"ha":1271,"x_min":0,"x_max":0,"o":"m 721 1283 l 558 1283 l 344 1050 l 579 1050 l 640 1122 l 704 1050 l 929 1050 z m 894 510 l 867 304 l 863 304 l 831 510 l 729 856 l 540 856 l 431 511 l 407 304 l 400 304 l 375 513 l 258 983 l 0 983 l 285 0 l 515 0 l 593 274 l 631 497 l 635 497 l 669 272 l 757 0 l 988 0 l 1271 983 l 1014 983 z "},"ẅ":{"ha":1271,"x_min":0,"x_max":0,"o":"m 356 1158 b 472 1043 356 1094 407 1043 b 589 1158 538 1043 589 1094 b 472 1276 589 1225 538 1276 b 356 1158 407 1276 356 1225 z m 690 1158 b 807 1043 690 1094 739 1043 b 925 1158 874 1043 925 1094 b 807 1276 925 1225 874 1276 b 690 1158 739 1276 690 1225 z m 894 510 l 867 304 l 863 304 l 831 510 l 729 856 l 540 856 l 431 511 l 407 304 l 400 304 l 375 513 l 258 983 l 0 983 l 285 0 l 515 0 l 593 274 l 631 497 l 635 497 l 669 272 l 757 0 l 988 0 l 1271 983 l 1014 983 z "},"ẁ":{"ha":1271,"x_min":0,"x_max":0,"o":"m 782 1050 l 643 1281 l 385 1281 l 567 1050 z m 894 510 l 867 304 l 863 304 l 831 510 l 729 856 l 540 856 l 431 511 l 407 304 l 400 304 l 375 513 l 258 983 l 0 983 l 285 0 l 515 0 l 593 274 l 631 497 l 635 497 l 669 272 l 757 0 l 988 0 l 1271 983 l 1014 983 z "},"x":{"ha":911,"x_min":0,"x_max":0,"o":"m 454 647 l 286 983 l -4 983 l 272 490 l -4 0 l 286 0 l 454 335 l 626 0 l 915 0 l 640 490 l 915 983 l 626 983 z "},"y":{"ha":910,"x_min":0,"x_max":0,"o":"m 579 0 l 579 388 l 924 983 l 632 983 l 454 622 l 276 983 l -12 983 l 331 388 l 331 0 z "},"ý":{"ha":910,"x_min":0,"x_max":0,"o":"m 704 1281 l 446 1281 l 307 1050 l 522 1050 z m 579 0 l 579 388 l 924 983 l 632 983 l 454 622 l 276 983 l -12 983 l 331 388 l 331 0 z "},"ŷ":{"ha":910,"x_min":0,"x_max":0,"o":"m 531 1283 l 368 1283 l 154 1050 l 389 1050 l 450 1122 l 514 1050 l 739 1050 z m 579 0 l 579 388 l 924 983 l 632 983 l 454 622 l 276 983 l -12 983 l 331 388 l 331 0 z "},"ÿ":{"ha":910,"x_min":0,"x_max":0,"o":"m 165 1158 b 282 1043 165 1094 217 1043 b 399 1158 347 1043 399 1094 b 282 1276 399 1225 347 1276 b 165 1158 217 1276 165 1225 z m 500 1158 b 617 1043 500 1094 549 1043 b 735 1158 683 1043 735 1094 b 617 1276 735 1225 683 1276 b 500 1158 549 1276 500 1225 z m 579 0 l 579 388 l 924 983 l 632 983 l 454 622 l 276 983 l -12 983 l 331 388 l 331 0 z "},"ỳ":{"ha":910,"x_min":0,"x_max":0,"o":"m 592 1050 l 453 1281 l 194 1281 l 376 1050 z m 579 0 l 579 388 l 924 983 l 632 983 l 454 622 l 276 983 l -12 983 l 331 388 l 331 0 z "},"z":{"ha":840,"x_min":0,"x_max":0,"o":"m 50 983 l 50 753 l 444 753 l 19 92 l 65 0 l 794 0 l 794 229 l 394 226 l 818 900 l 765 983 z "},"ź":{"ha":840,"x_min":0,"x_max":0,"o":"m 686 1281 l 428 1281 l 289 1050 l 504 1050 z m 50 983 l 50 753 l 444 753 l 19 92 l 65 0 l 794 0 l 794 229 l 394 226 l 818 900 l 765 983 z "},"ž":{"ha":840,"x_min":0,"x_max":0,"o":"m 142 1283 l 350 1050 l 519 1050 l 728 1283 l 496 1283 l 432 1211 l 375 1283 z m 50 983 l 50 753 l 444 753 l 19 92 l 65 0 l 794 0 l 794 229 l 394 226 l 818 900 l 765 983 z "},"ż":{"ha":840,"x_min":0,"x_max":0,"o":"m 294 1182 b 432 1046 294 1106 354 1046 b 567 1182 510 1046 567 1106 b 432 1317 567 1257 510 1317 b 294 1182 354 1317 294 1257 z m 50 983 l 50 753 l 444 753 l 19 92 l 65 0 l 794 0 l 794 229 l 394 226 l 818 900 l 765 983 z "},"ﬁ":{"ha":1157,"x_min":0,"x_max":0,"o":"m 329 747 l 763 747 l 763 983 l 78 983 l 78 0 l 329 0 l 329 339 l 708 339 l 708 571 l 329 571 z m 1079 983 l 831 983 l 831 0 l 1079 0 z "},"ﬂ":{"ha":1528,"x_min":0,"x_max":0,"o":"m 329 747 l 763 747 l 763 983 l 78 983 l 78 0 l 329 0 l 329 339 l 708 339 l 708 571 l 329 571 z m 857 0 l 1507 0 l 1507 246 l 1107 246 l 1107 983 l 857 983 z "},"ª":{"ha":518,"x_min":0,"x_max":0,"o":"m 131 797 b 308 776 188 849 304 851 b 43 619 213 807 43 783 b 458 464 43 404 279 415 l 458 788 b 53 869 458 1003 163 1038 z m 299 563 b 193 615 258 551 193 557 b 299 654 196 661 260 671 z "},"º":{"ha":569,"x_min":0,"x_max":0,"o":"m 285 414 b 524 621 401 414 524 483 l 524 788 b 285 994 524 926 401 994 b 46 788 168 994 46 926 l 46 621 b 285 414 46 483 168 414 z m 233 788 b 336 786 233 851 335 851 l 336 621 b 233 621 335 556 235 560 z "},"А":{"ha":900,"x_min":0,"x_max":0,"o":"m 561 983 l 335 983 l -8 0 l 258 0 l 319 197 l 582 197 l 646 0 l 913 0 z m 375 418 l 447 706 l 454 706 l 522 418 z "},"Б":{"ha":856,"x_min":0,"x_max":0,"o":"m 831 321 b 472 622 831 517 746 622 l 328 622 l 328 775 l 750 775 l 750 983 l 78 983 l 78 0 l 479 0 b 831 321 697 0 831 125 z m 328 218 l 328 442 l 471 442 b 585 333 547 442 585 403 b 472 218 585 264 557 218 z "},"В":{"ha":869,"x_min":0,"x_max":0,"o":"m 792 683 b 472 983 797 871 660 983 l 78 983 l 78 0 l 479 0 b 829 254 697 0 804 96 b 690 524 842 329 825 456 b 792 683 761 560 790 639 z m 328 599 l 328 774 l 472 774 b 472 599 597 774 593 599 z m 328 218 l 328 419 l 472 419 b 472 218 619 419 622 218 z "},"Г":{"ha":710,"x_min":0,"x_max":0,"o":"m 78 983 l 78 0 l 328 0 l 328 747 l 690 747 l 690 983 z "},"Д":{"ha":1036,"x_min":0,"x_max":0,"o":"m 279 -197 l 279 0 l 760 0 l 760 -197 l 1010 -197 l 1010 224 l 890 224 l 890 983 l 249 983 l 225 654 b 25 224 210 431 219 224 l 25 -197 z m 640 224 l 411 224 b 453 449 436 289 449 375 l 474 747 l 640 747 z "},"Е":{"ha":817,"x_min":0,"x_max":0,"o":"m 329 750 l 763 750 l 763 983 l 78 983 l 78 0 l 763 0 l 763 235 l 329 235 l 329 382 l 728 382 l 728 597 l 329 597 z "},"Ё":{"ha":817,"x_min":0,"x_max":0,"o":"m 144 1158 b 261 1043 144 1094 196 1043 b 378 1158 326 1043 378 1094 b 261 1276 378 1225 326 1276 b 144 1158 196 1276 144 1225 z m 479 1158 b 596 1043 479 1094 528 1043 b 714 1158 663 1043 714 1094 b 596 1276 714 1225 663 1276 b 479 1158 528 1276 479 1225 z m 329 750 l 763 750 l 763 983 l 78 983 l 78 0 l 763 0 l 763 235 l 329 235 l 329 382 l 728 382 l 728 597 l 329 597 z "},"Ж":{"ha":1317,"x_min":0,"x_max":0,"o":"m 533 0 l 783 0 l 783 361 l 792 372 l 1018 0 l 1328 0 l 978 500 l 1329 983 l 1029 983 l 783 615 l 783 983 l 533 983 l 533 615 l 288 983 l -12 983 l 339 500 l -11 0 l 299 0 l 525 372 l 533 361 z "},"З":{"ha":790,"x_min":0,"x_max":0,"o":"m 611 524 b 718 713 682 560 718 649 b 379 997 718 892 597 997 b 51 847 236 997 129 943 l 182 719 b 361 789 214 743 289 789 b 486 696 444 789 486 751 b 368 593 486 631 442 593 l 228 593 l 228 422 l 374 422 b 501 310 454 422 501 381 b 343 204 501 239 443 204 b 156 303 282 204 211 240 l -3 179 b 357 -14 71 58 204 -14 b 751 294 606 -14 751 100 b 611 524 751 382 714 472 z "},"И":{"ha":951,"x_min":0,"x_max":0,"o":"m 624 0 l 874 0 l 874 983 l 646 983 l 394 565 l 313 389 l 307 390 b 328 538 307 390 326 538 l 328 983 l 78 983 l 78 0 l 313 0 l 549 388 l 642 579 l 649 578 b 624 393 649 578 625 393 z "},"Й":{"ha":951,"x_min":0,"x_max":0,"o":"m 469 1064 b 721 1306 599 1064 721 1146 l 528 1306 b 469 1249 528 1271 503 1249 b 411 1306 436 1249 411 1271 l 218 1306 b 469 1064 218 1146 340 1064 z m 624 0 l 874 0 l 874 983 l 646 983 l 394 565 l 313 389 l 307 390 b 328 538 307 390 326 538 l 328 983 l 78 983 l 78 0 l 313 0 l 549 388 l 642 579 l 649 578 b 624 393 649 578 625 393 z "},"К":{"ha":889,"x_min":0,"x_max":0,"o":"m 328 619 l 328 983 l 78 983 l 78 0 l 328 0 l 328 340 l 336 351 l 590 0 l 903 0 l 515 500 l 904 983 l 594 983 z "},"Л":{"ha":985,"x_min":0,"x_max":0,"o":"m 475 747 l 657 747 l 657 0 l 907 0 l 907 983 l 250 983 l 226 654 b 24 232 211 436 226 221 l 24 0 b 458 449 344 -32 446 221 z "},"М":{"ha":1068,"x_min":0,"x_max":0,"o":"m 78 0 l 326 0 l 326 283 l 310 482 l 317 483 l 449 146 l 619 146 l 749 483 l 757 482 l 742 283 l 740 0 l 990 0 l 990 983 l 742 983 l 533 503 l 326 983 l 78 983 z "},"Н":{"ha":939,"x_min":0,"x_max":0,"o":"m 328 371 l 611 371 l 611 0 l 861 0 l 861 983 l 611 983 l 611 611 l 328 611 l 328 983 l 78 983 l 78 0 l 328 0 z "},"О":{"ha":924,"x_min":0,"x_max":0,"o":"m 54 324 b 463 -14 54 99 258 -14 b 869 324 667 -14 869 99 l 869 660 b 461 997 869 885 665 997 b 54 660 257 997 54 886 z m 303 660 b 458 771 303 732 381 771 b 621 660 539 771 621 736 l 621 324 b 463 217 621 253 542 217 b 303 324 383 217 303 251 z "},"П":{"ha":932,"x_min":0,"x_max":0,"o":"m 328 747 l 604 747 l 604 0 l 854 0 l 854 983 l 78 983 l 78 0 l 328 0 z "},"Р":{"ha":858,"x_min":0,"x_max":0,"o":"m 78 0 l 326 0 l 326 288 l 472 288 b 831 636 710 288 831 461 b 471 983 831 810 711 983 l 78 983 z m 326 508 l 326 751 l 471 751 b 471 508 621 753 621 507 z "},"С":{"ha":808,"x_min":0,"x_max":0,"o":"m 579 307 b 303 322 525 171 303 204 l 303 661 b 589 689 303 783 522 811 l 792 771 b 446 997 713 946 567 997 b 54 661 249 997 54 883 l 54 322 b 442 -14 54 99 249 -14 b 796 207 565 -14 714 47 z "},"Т":{"ha":813,"x_min":0,"x_max":0,"o":"m 793 749 l 793 985 l 19 985 l 19 749 l 281 749 l 281 0 l 532 0 l 532 749 z "},"У":{"ha":835,"x_min":0,"x_max":0,"o":"m 342 769 l 244 983 l -37 983 l 286 318 l 142 0 l 410 0 l 854 983 l 578 983 l 489 783 l 415 592 l 408 592 z "},"Ф":{"ha":1117,"x_min":0,"x_max":0,"o":"m 440 0 l 676 0 l 676 81 b 1081 407 881 81 1081 172 l 1081 576 b 676 903 1081 811 881 903 l 676 983 l 440 983 l 440 903 b 36 576 236 903 36 811 l 36 407 b 440 81 36 172 236 81 z m 286 578 b 440 678 286 661 360 678 l 440 306 b 286 406 360 306 286 322 z m 831 406 b 676 306 831 322 757 306 l 676 678 b 831 578 757 678 831 661 z "},"Х":{"ha":911,"x_min":0,"x_max":0,"o":"m 454 647 l 286 983 l -4 983 l 272 490 l -4 0 l 286 0 l 454 335 l 626 0 l 915 0 l 640 490 l 915 983 l 626 983 z "},"Ч":{"ha":888,"x_min":0,"x_max":0,"o":"m 560 0 l 810 0 l 810 983 l 560 983 l 558 557 b 401 510 524 525 460 510 b 294 611 333 511 294 547 l 294 983 l 44 983 l 44 611 b 381 274 44 388 207 274 b 560 329 458 274 528 301 z "},"Ц":{"ha":993,"x_min":0,"x_max":0,"o":"m 78 0 l 729 0 l 729 -197 l 965 -197 l 965 236 l 846 236 l 846 983 l 596 983 l 596 236 l 328 236 l 328 983 l 78 983 z "},"Ш":{"ha":1372,"x_min":0,"x_max":0,"o":"m 78 983 l 78 0 l 1294 0 l 1294 983 l 1044 983 l 1044 236 l 811 236 l 811 983 l 561 983 l 561 236 l 328 236 l 328 983 z "},"Щ":{"ha":1442,"x_min":0,"x_max":0,"o":"m 1044 983 l 1044 236 l 811 236 l 811 983 l 561 983 l 561 236 l 328 236 l 328 983 l 78 983 l 78 0 l 1178 0 l 1178 -197 l 1414 -197 l 1414 236 l 1294 236 l 1294 983 z "},"Я":{"ha":897,"x_min":0,"x_max":0,"o":"m 819 0 l 819 983 l 428 983 b 56 660 200 983 61 867 b 256 356 56 471 144 394 l -44 0 l 265 0 l 529 331 l 569 331 l 569 0 z m 569 747 l 569 526 l 424 526 b 306 640 343 526 306 576 b 424 747 306 708 349 747 z "},"Ь":{"ha":858,"x_min":0,"x_max":0,"o":"m 829 338 b 475 649 829 525 742 649 l 328 649 l 328 983 l 78 983 l 78 0 l 482 0 b 829 338 700 0 829 144 z m 328 218 l 328 451 l 475 451 b 585 340 543 451 585 413 b 475 218 585 278 560 218 z "},"Ъ":{"ha":992,"x_min":0,"x_max":0,"o":"m 211 747 l 211 0 l 615 0 b 963 338 833 0 963 144 b 608 649 963 525 875 649 l 461 649 l 461 983 l 24 983 l 24 747 z m 461 218 l 461 451 l 608 451 b 718 340 676 451 718 413 b 608 218 718 278 693 218 z "},"Ы":{"ha":1271,"x_min":0,"x_max":0,"o":"m 829 338 b 475 649 829 525 742 649 l 328 649 l 328 983 l 78 983 l 78 0 l 482 0 b 829 338 700 0 829 144 z m 1193 983 l 944 983 l 944 0 l 1193 0 z m 328 218 l 328 451 l 475 451 b 585 340 543 451 585 413 b 475 218 585 278 560 218 z "},"Э":{"ha":817,"x_min":0,"x_max":0,"o":"m 513 324 b 381 222 513 260 449 224 b 236 308 322 222 261 246 l 19 208 b 374 -14 101 49 250 -14 b 763 324 567 -14 763 100 l 763 658 b 369 997 763 881 567 997 b 24 768 249 997 103 943 l 226 686 b 374 765 256 740 315 765 b 513 658 444 765 513 726 l 513 600 l 294 600 l 294 393 l 513 393 z "},"Ю":{"ha":1354,"x_min":0,"x_max":0,"o":"m 482 610 l 326 610 l 326 983 l 76 983 l 76 0 l 326 0 l 326 382 l 482 382 l 482 324 b 892 -14 482 99 688 -14 b 1300 324 1096 -14 1300 99 l 1300 660 b 890 997 1300 885 1094 997 b 482 660 686 997 482 886 z m 732 650 b 890 761 732 722 811 760 b 1050 650 969 761 1050 725 l 1050 329 b 890 222 1050 257 969 222 b 732 329 811 222 732 258 z "},"а":{"ha":900,"x_min":0,"x_max":0,"o":"m 561 983 l 335 983 l -8 0 l 258 0 l 319 197 l 582 197 l 646 0 l 913 0 z m 375 418 l 447 706 l 454 706 l 522 418 z "},"б":{"ha":856,"x_min":0,"x_max":0,"o":"m 831 321 b 472 622 831 517 746 622 l 328 622 l 328 775 l 750 775 l 750 983 l 78 983 l 78 0 l 479 0 b 831 321 697 0 831 125 z m 328 218 l 328 442 l 471 442 b 585 333 547 442 585 403 b 472 218 585 264 557 218 z "},"в":{"ha":869,"x_min":0,"x_max":0,"o":"m 792 683 b 472 983 797 871 660 983 l 78 983 l 78 0 l 479 0 b 829 254 697 0 804 96 b 690 524 842 329 825 456 b 792 683 761 560 790 639 z m 328 599 l 328 774 l 472 774 b 472 599 597 774 593 599 z m 328 218 l 328 419 l 472 419 b 472 218 619 419 622 218 z "},"г":{"ha":710,"x_min":0,"x_max":0,"o":"m 78 983 l 78 0 l 328 0 l 328 747 l 690 747 l 690 983 z "},"д":{"ha":1001,"x_min":0,"x_max":0,"o":"m 274 -197 l 274 0 l 728 0 l 728 -197 l 981 -197 l 981 224 l 894 224 l 629 983 l 367 983 l 110 224 l 21 224 l 21 -197 z m 551 489 l 619 224 l 381 224 l 454 486 l 497 706 l 503 706 z "},"е":{"ha":817,"x_min":0,"x_max":0,"o":"m 329 750 l 763 750 l 763 983 l 78 983 l 78 0 l 763 0 l 763 235 l 329 235 l 329 382 l 728 382 l 728 597 l 329 597 z "},"ё":{"ha":817,"x_min":0,"x_max":0,"o":"m 144 1158 b 261 1043 144 1094 196 1043 b 378 1158 326 1043 378 1094 b 261 1276 378 1225 326 1276 b 144 1158 196 1276 144 1225 z m 479 1158 b 596 1043 479 1094 528 1043 b 714 1158 663 1043 714 1094 b 596 1276 714 1225 663 1276 b 479 1158 528 1276 479 1225 z m 329 750 l 763 750 l 763 983 l 78 983 l 78 0 l 763 0 l 763 235 l 329 235 l 329 382 l 728 382 l 728 597 l 329 597 z "},"ж":{"ha":1317,"x_min":0,"x_max":0,"o":"m 533 0 l 783 0 l 783 361 l 792 372 l 1018 0 l 1328 0 l 978 500 l 1329 983 l 1029 983 l 783 615 l 783 983 l 533 983 l 533 615 l 288 983 l -12 983 l 339 500 l -11 0 l 299 0 l 525 372 l 533 361 z "},"з":{"ha":790,"x_min":0,"x_max":0,"o":"m 611 524 b 718 713 682 560 718 649 b 379 997 718 892 597 997 b 51 847 236 997 129 943 l 182 719 b 361 789 214 743 289 789 b 486 696 444 789 486 751 b 368 593 486 631 442 593 l 228 593 l 228 422 l 374 422 b 501 310 454 422 501 381 b 343 204 501 239 443 204 b 156 303 282 204 211 240 l -3 179 b 357 -14 71 58 204 -14 b 751 294 606 -14 751 100 b 611 524 751 382 714 472 z "},"и":{"ha":951,"x_min":0,"x_max":0,"o":"m 624 0 l 874 0 l 874 983 l 646 983 l 394 565 l 313 389 l 307 390 b 328 538 307 390 326 538 l 328 983 l 78 983 l 78 0 l 313 0 l 549 388 l 642 579 l 649 578 b 624 393 649 578 625 393 z "},"й":{"ha":951,"x_min":0,"x_max":0,"o":"m 469 1064 b 721 1306 599 1064 721 1146 l 528 1306 b 469 1249 528 1271 503 1249 b 411 1306 436 1249 411 1271 l 218 1306 b 469 1064 218 1146 340 1064 z m 624 0 l 874 0 l 874 983 l 646 983 l 394 565 l 313 389 l 307 390 b 328 538 307 390 326 538 l 328 983 l 78 983 l 78 0 l 313 0 l 549 388 l 642 579 l 649 578 b 624 393 649 578 625 393 z "},"к":{"ha":889,"x_min":0,"x_max":0,"o":"m 328 619 l 328 983 l 78 983 l 78 0 l 328 0 l 328 340 l 336 351 l 590 0 l 903 0 l 515 500 l 904 983 l 594 983 z "},"л":{"ha":881,"x_min":0,"x_max":0,"o":"m 444 706 l 501 418 l 625 0 l 892 0 l 553 983 l 324 983 l -7 0 l 260 0 l 376 418 l 436 706 z "},"м":{"ha":1068,"x_min":0,"x_max":0,"o":"m 78 0 l 326 0 l 326 283 l 310 482 l 317 483 l 449 146 l 619 146 l 749 483 l 757 482 l 742 283 l 740 0 l 990 0 l 990 983 l 742 983 l 533 503 l 326 983 l 78 983 z "},"н":{"ha":939,"x_min":0,"x_max":0,"o":"m 328 371 l 611 371 l 611 0 l 861 0 l 861 983 l 611 983 l 611 611 l 328 611 l 328 983 l 78 983 l 78 0 l 328 0 z "},"о":{"ha":924,"x_min":0,"x_max":0,"o":"m 54 324 b 463 -14 54 99 258 -14 b 869 324 667 -14 869 99 l 869 660 b 461 997 869 885 665 997 b 54 660 257 997 54 886 z m 303 660 b 458 771 303 732 381 771 b 621 660 539 771 621 736 l 621 324 b 463 217 621 253 542 217 b 303 324 383 217 303 251 z "},"п":{"ha":932,"x_min":0,"x_max":0,"o":"m 328 747 l 604 747 l 604 0 l 854 0 l 854 983 l 78 983 l 78 0 l 328 0 z "},"р":{"ha":858,"x_min":0,"x_max":0,"o":"m 78 0 l 326 0 l 326 288 l 472 288 b 831 636 710 288 831 461 b 471 983 831 810 711 983 l 78 983 z m 326 508 l 326 751 l 471 751 b 471 508 621 753 621 507 z "},"с":{"ha":808,"x_min":0,"x_max":0,"o":"m 579 307 b 303 322 525 171 303 204 l 303 661 b 589 689 303 783 522 811 l 792 771 b 446 997 713 946 567 997 b 54 661 249 997 54 883 l 54 322 b 442 -14 54 99 249 -14 b 796 207 565 -14 714 47 z "},"т":{"ha":813,"x_min":0,"x_max":0,"o":"m 793 749 l 793 985 l 19 985 l 19 749 l 281 749 l 281 0 l 532 0 l 532 749 z "},"у":{"ha":835,"x_min":0,"x_max":0,"o":"m 342 769 l 244 983 l -37 983 l 286 318 l 142 0 l 410 0 l 854 983 l 578 983 l 489 783 l 415 592 l 408 592 z "},"ф":{"ha":1117,"x_min":0,"x_max":0,"o":"m 440 0 l 676 0 l 676 81 b 1081 407 881 81 1081 172 l 1081 576 b 676 903 1081 811 881 903 l 676 983 l 440 983 l 440 903 b 36 576 236 903 36 811 l 36 407 b 440 81 36 172 236 81 z m 286 578 b 440 678 286 661 360 678 l 440 306 b 286 406 360 306 286 322 z m 831 406 b 676 306 831 322 757 306 l 676 678 b 831 578 757 678 831 661 z "},"х":{"ha":911,"x_min":0,"x_max":0,"o":"m 454 647 l 286 983 l -4 983 l 272 490 l -4 0 l 286 0 l 454 335 l 626 0 l 915 0 l 640 490 l 915 983 l 626 983 z "},"ч":{"ha":888,"x_min":0,"x_max":0,"o":"m 560 0 l 810 0 l 810 983 l 560 983 l 558 557 b 401 510 524 525 460 510 b 294 611 333 511 294 547 l 294 983 l 44 983 l 44 611 b 381 274 44 388 207 274 b 560 329 458 274 528 301 z "},"ц":{"ha":993,"x_min":0,"x_max":0,"o":"m 78 0 l 729 0 l 729 -197 l 965 -197 l 965 236 l 846 236 l 846 983 l 596 983 l 596 236 l 328 236 l 328 983 l 78 983 z "},"ш":{"ha":1372,"x_min":0,"x_max":0,"o":"m 78 983 l 78 0 l 1294 0 l 1294 983 l 1044 983 l 1044 236 l 811 236 l 811 983 l 561 983 l 561 236 l 328 236 l 328 983 z "},"щ":{"ha":1442,"x_min":0,"x_max":0,"o":"m 1044 983 l 1044 236 l 811 236 l 811 983 l 561 983 l 561 236 l 328 236 l 328 983 l 78 983 l 78 0 l 1178 0 l 1178 -197 l 1414 -197 l 1414 236 l 1294 236 l 1294 983 z "},"я":{"ha":897,"x_min":0,"x_max":0,"o":"m 819 0 l 819 983 l 428 983 b 56 660 200 983 61 867 b 256 356 56 471 144 394 l -44 0 l 265 0 l 529 331 l 569 331 l 569 0 z m 569 747 l 569 526 l 424 526 b 306 640 343 526 306 576 b 424 747 306 708 349 747 z "},"ь":{"ha":858,"x_min":0,"x_max":0,"o":"m 829 338 b 475 649 829 525 742 649 l 328 649 l 328 983 l 78 983 l 78 0 l 482 0 b 829 338 700 0 829 144 z m 328 218 l 328 451 l 475 451 b 585 340 543 451 585 413 b 475 218 585 278 560 218 z "},"ъ":{"ha":992,"x_min":0,"x_max":0,"o":"m 211 747 l 211 0 l 615 0 b 963 338 833 0 963 144 b 608 649 963 525 875 649 l 461 649 l 461 983 l 24 983 l 24 747 z m 461 218 l 461 451 l 608 451 b 718 340 676 451 718 413 b 608 218 718 278 693 218 z "},"ы":{"ha":1271,"x_min":0,"x_max":0,"o":"m 829 338 b 475 649 829 525 742 649 l 328 649 l 328 983 l 78 983 l 78 0 l 482 0 b 829 338 700 0 829 144 z m 1193 983 l 944 983 l 944 0 l 1193 0 z m 328 218 l 328 451 l 475 451 b 585 340 543 451 585 413 b 475 218 585 278 560 218 z "},"э":{"ha":817,"x_min":0,"x_max":0,"o":"m 513 324 b 381 222 513 260 449 224 b 236 308 322 222 261 246 l 19 208 b 374 -14 101 49 250 -14 b 763 324 567 -14 763 100 l 763 658 b 369 997 763 881 567 997 b 24 768 249 997 103 943 l 226 686 b 374 765 256 740 315 765 b 513 658 444 765 513 726 l 513 600 l 294 600 l 294 393 l 513 393 z "},"ю":{"ha":1354,"x_min":0,"x_max":0,"o":"m 482 610 l 326 610 l 326 983 l 76 983 l 76 0 l 326 0 l 326 382 l 482 382 l 482 324 b 892 -14 482 99 688 -14 b 1300 324 1096 -14 1300 99 l 1300 660 b 890 997 1300 885 1094 997 b 482 660 686 997 482 886 z m 732 650 b 890 761 732 722 811 760 b 1050 650 969 761 1050 725 l 1050 329 b 890 222 1050 257 969 222 b 732 329 811 222 732 258 z "},"∆":{"ha":813,"x_min":0,"x_max":0,"o":"m 310 938 l 33 149 l 33 0 l 779 0 l 779 150 l 503 938 z m 403 614 l 503 235 l 301 235 z "},"Ω":{"ha":1075,"x_min":0,"x_max":0,"o":"m 575 0 l 1018 0 l 1018 244 l 911 244 b 1017 525 978 307 1017 419 b 535 986 1017 826 775 986 b 61 519 297 986 61 832 b 164 244 61 413 96 315 l 54 244 l 54 0 l 497 0 l 497 199 b 303 492 369 249 303 374 b 535 747 303 624 379 747 b 775 503 700 747 775 629 b 574 199 775 381 704 251 z "},"Ω":{"ha":1078,"x_min":0,"x_max":0,"o":"m 56 244 l 56 0 l 517 0 l 517 196 b 299 492 368 240 299 365 b 536 747 299 624 381 747 b 781 503 701 747 781 629 b 557 196 781 367 722 249 l 557 0 l 1019 0 l 1019 244 l 931 244 b 1018 525 988 317 1018 419 b 536 986 1018 826 776 986 b 63 519 299 986 63 832 b 146 244 63 413 90 317 z "},"µ":{"ha":733,"x_min":0,"x_max":0,"o":"m 467 -1 l 669 -3 l 667 717 l 428 717 l 428 285 b 303 286 428 192 303 194 l 303 717 l 65 717 l 65 -239 l 303 -239 l 303 47 b 458 51 340 -14 411 -22 z "},"μ":{"ha":736,"x_min":0,"x_max":0,"o":"m 468 -1 l 671 -3 l 668 717 l 429 717 l 429 285 b 304 286 429 192 304 194 l 304 717 l 67 717 l 67 -239 l 304 -239 l 304 47 b 460 51 342 -14 413 -22 z "},"π":{"ha":799,"x_min":0,"x_max":0,"o":"m 738 181 b 681 239 685 179 681 224 l 681 511 l 736 511 l 758 728 l 218 728 b 33 669 129 728 81 700 l 7 646 l 53 471 l 140 490 l 140 0 l 374 0 l 374 511 l 444 511 l 444 235 b 739 -7 444 96 506 -31 z "},"⁄":{"ha":810,"x_min":0,"x_max":0,"o":"m 818 951 l 622 1071 l -8 14 l 188 -107 z "},"½":{"ha":1190,"x_min":0,"x_max":0,"o":"m 925 901 l 764 999 l 178 36 l 338 -62 z m 353 378 l 167 378 l 167 742 l 99 703 l 29 800 l 204 990 l 353 990 z m 704 494 b 915 611 758 579 832 611 b 1138 407 1051 611 1138 515 b 1067 256 1138 351 1121 301 l 985 181 l 1140 181 l 1140 4 l 736 4 l 697 107 l 910 343 b 831 389 992 433 883 479 z "},"¼":{"ha":1153,"x_min":0,"x_max":0,"o":"m 915 901 l 753 999 l 167 35 l 329 -62 z m 353 378 l 167 378 l 167 742 l 99 703 l 29 800 l 204 990 l 353 990 z m 1057 650 l 1057 283 l 1107 283 l 1107 121 l 1057 121 l 1057 0 l 871 0 l 871 121 l 647 121 l 567 246 l 900 650 z m 888 278 l 890 407 l 885 408 l 771 278 z "},"¾":{"ha":1194,"x_min":0,"x_max":0,"o":"m 996 901 l 839 999 l 253 36 l 410 -62 z m 194 608 l 194 751 l 268 751 b 250 832 311 751 314 835 b 176 796 219 831 190 814 l 65 888 b 246 988 124 949 169 983 b 407 693 413 996 547 822 b 449 431 528 639 519 508 b 32 483 335 306 107 329 l 164 564 b 307 572 197 503 307 513 b 269 608 307 589 293 611 z m 958 628 l 1104 628 l 1104 274 l 1153 274 l 1153 117 l 1104 117 l 1104 0 l 940 0 l 940 117 l 714 117 l 636 238 z m 833 268 l 946 268 l 949 393 l 943 394 z "},"¹":{"ha":403,"x_min":0,"x_max":0,"o":"m 79 694 l 147 733 l 147 369 l 333 369 l 333 982 l 185 982 l 10 792 z "},"²":{"ha":553,"x_min":0,"x_max":0,"o":"m 175 739 b 256 692 229 833 339 786 l 40 447 l 79 342 l 497 342 l 497 524 l 332 524 l 414 601 b 486 758 469 649 486 701 b 261 969 486 871 399 969 b 47 849 176 969 103 936 z "},"³":{"ha":518,"x_min":0,"x_max":0,"o":"m 182 739 l 182 600 l 253 600 b 289 565 275 603 289 581 b 153 557 289 507 185 497 l 26 478 b 424 426 99 329 315 306 b 385 682 492 503 500 629 b 231 968 518 808 389 976 b 58 871 157 964 114 931 l 164 782 b 235 817 178 800 206 815 b 251 739 296 819 293 739 z "},"*":{"ha":663,"x_min":0,"x_max":0,"o":"m 564 901 l 419 839 l 446 986 l 218 986 l 239 838 l 97 904 l 33 685 l 186 667 l 74 550 l 260 415 l 332 556 l 407 415 l 586 553 l 474 661 l 629 681 z "},"\\":{"ha":699,"x_min":0,"x_max":0,"o":"m 451 -81 l 672 -6 l 250 1065 l 26 988 z "},"•":{"ha":583,"x_min":0,"x_max":0,"o":"m 67 460 b 293 233 67 335 167 233 b 517 460 417 233 517 335 b 293 685 517 583 417 685 b 67 460 167 685 67 583 z "},":":{"ha":385,"x_min":0,"x_max":0,"o":"m 54 546 b 193 406 54 468 117 406 b 331 546 269 406 331 468 b 193 682 331 622 269 682 b 54 546 117 682 54 622 z m 54 147 b 193 8 54 71 117 8 b 331 147 269 8 331 71 b 193 286 331 228 269 286 b 54 147 117 286 54 228 z "},",":{"ha":399,"x_min":0,"x_max":0,"o":"m 349 147 l 88 147 l -31 -207 l 210 -207 z "},"…":{"ha":1092,"x_min":0,"x_max":0,"o":"m 40 132 b 181 -8 40 54 101 -8 b 318 132 257 -8 318 54 b 181 269 318 208 257 269 b 40 132 101 269 40 208 z m 408 132 b 544 -8 408 54 468 -8 b 685 132 624 -8 685 54 b 544 269 685 208 624 269 b 408 132 468 269 408 208 z m 774 132 b 911 -8 774 54 833 -8 b 1050 132 992 -8 1050 54 b 911 269 1050 208 992 269 b 774 132 833 269 774 208 z "},"!":{"ha":404,"x_min":0,"x_max":0,"o":"m 74 306 l 329 306 l 343 989 l 60 989 z m 65 124 b 203 -14 65 47 126 -14 b 343 124 281 -14 343 47 b 203 264 343 201 281 264 b 65 124 126 264 65 201 z "},"¡":{"ha":372,"x_min":0,"x_max":0,"o":"m 324 578 b 185 714 324 654 264 714 b 49 578 104 714 49 654 b 185 439 49 497 104 439 b 324 578 264 439 324 497 z m 304 404 l 67 404 l 67 -256 l 304 -256 z "},"#":{"ha":899,"x_min":0,"x_max":0,"o":"m 699 438 l 711 483 l 804 483 l 865 694 l 774 694 l 840 918 l 611 918 l 546 694 l 488 694 l 553 918 l 333 918 l 268 694 l 165 694 l 103 483 l 206 483 l 193 438 l 90 438 l 31 235 l 133 235 l 64 -1 l 290 -1 l 358 235 l 417 235 l 349 -1 l 568 -1 l 638 235 l 731 235 l 790 438 z m 428 501 l 508 501 l 486 419 l 404 419 z "},".":{"ha":357,"x_min":0,"x_max":0,"o":"m 40 132 b 178 -8 40 54 101 -8 b 317 132 254 -8 317 54 b 178 269 317 208 254 269 b 40 132 101 269 40 208 z "},"·":{"ha":367,"x_min":0,"x_max":0,"o":"m 46 421 b 185 285 46 344 103 285 b 321 421 264 285 321 344 b 185 561 321 499 264 561 b 46 421 103 561 46 499 z "},"?":{"ha":682,"x_min":0,"x_max":0,"o":"m 171 690 b 401 671 228 796 401 771 b 171 567 401 569 289 517 l 185 250 l 393 250 l 407 413 b 646 686 572 436 646 565 b 29 811 646 1003 199 1133 z m 163 90 b 289 -36 163 19 218 -36 b 414 90 358 -36 414 19 b 289 215 414 164 358 215 b 163 90 218 215 163 164 z "},"¿":{"ha":676,"x_min":0,"x_max":0,"o":"m 517 604 b 390 731 517 675 461 731 b 265 604 321 731 265 675 b 390 479 265 531 321 479 b 517 604 461 479 517 531 z m 650 -117 b 33 8 481 -439 33 -308 b 272 282 33 129 107 258 l 286 439 l 494 439 l 508 128 b 278 24 390 178 278 125 b 508 4 278 -76 451 -101 z "},"\"":{"ha":642,"x_min":0,"x_max":0,"o":"m 306 985 l 65 985 l 65 582 l 276 582 z m 590 985 l 350 985 l 350 582 l 563 582 z "},"'":{"ha":357,"x_min":0,"x_max":0,"o":"m 303 983 l 67 983 l 67 581 l 282 581 z "},";":{"ha":407,"x_min":0,"x_max":0,"o":"m 63 531 b 201 390 63 451 119 390 b 338 531 281 390 338 451 b 201 667 338 607 281 667 b 63 531 119 667 63 607 z m 354 176 l 94 176 l 10 -178 l 226 -178 z "},"/":{"ha":681,"x_min":0,"x_max":0,"o":"m 654 985 l 436 1061 l 26 -18 l 246 -97 z "},"_":{"ha":824,"x_min":0,"x_max":0,"o":"m 761 47 l 61 47 l 61 -187 l 761 -187 z "},"{":{"ha":488,"x_min":0,"x_max":0,"o":"m 353 760 l 435 760 l 435 986 l 321 986 b 115 771 164 986 115 901 l 115 601 b 40 529 115 564 99 529 l 40 303 b 115 229 99 303 115 268 l 115 75 b 310 -139 115 -57 156 -139 l 435 -139 l 435 88 l 353 88 l 353 251 b 253 417 353 319 318 393 b 353 581 314 440 353 522 z "},"}":{"ha":478,"x_min":0,"x_max":0,"o":"m 54 983 l 54 757 l 125 757 l 125 581 b 232 418 119 513 179 443 b 125 251 175 397 121 322 l 125 76 l 54 76 l 54 -150 l 147 -150 b 361 64 324 -150 361 -68 l 361 229 b 438 303 361 268 376 303 l 438 529 b 361 601 376 529 361 564 l 361 768 b 150 983 361 899 340 983 z "},"[":{"ha":456,"x_min":0,"x_max":0,"o":"m 307 756 l 403 756 l 403 986 l 69 986 l 69 -139 l 403 -139 l 403 90 l 307 90 z "},"]":{"ha":456,"x_min":0,"x_max":0,"o":"m 146 88 l 53 88 l 53 -139 l 386 -139 l 386 986 l 53 986 l 53 760 l 146 760 z "},"(":{"ha":447,"x_min":0,"x_max":0,"o":"m 264 1104 b 40 482 114 935 40 697 b 256 -169 40 269 113 32 l 432 -51 b 428 997 207 294 200 657 z "},")":{"ha":439,"x_min":0,"x_max":0,"o":"m 17 982 b 17 -54 247 663 231 289 l 183 -167 b 399 482 328 35 399 269 b 175 1088 399 697 325 918 z "},"—":{"ha":1206,"x_min":0,"x_max":0,"o":"m 1142 519 l 64 519 l 64 285 l 1142 285 z "},"–":{"ha":793,"x_min":0,"x_max":0,"o":"m 729 519 l 64 519 l 64 285 l 729 285 z "},"-":{"ha":561,"x_min":0,"x_max":0,"o":"m 497 521 l 64 521 l 64 285 l 497 285 z "},"­":{"ha":565,"x_min":0,"x_max":0,"o":"m 500 461 l 65 461 l 65 224 l 500 224 z "},"«":{"ha":851,"x_min":0,"x_max":0,"o":"m 249 728 l 26 399 l 247 67 l 451 186 l 307 399 l 450 608 z m 607 728 l 385 399 l 607 67 l 811 188 l 664 396 l 808 608 z "},"»":{"ha":838,"x_min":0,"x_max":0,"o":"m 246 68 l 467 399 l 243 729 l 43 608 l 186 399 l 40 186 z m 590 67 l 813 399 l 592 728 l 388 610 l 532 399 l 389 188 z "},"‹":{"ha":489,"x_min":0,"x_max":0,"o":"m 249 729 l 26 399 l 247 67 l 449 185 b 306 400 408 247 349 333 l 449 608 z "},"›":{"ha":489,"x_min":0,"x_max":0,"o":"m 244 68 l 463 399 l 242 728 l 40 608 l 182 399 l 39 185 z "},"„":{"ha":719,"x_min":0,"x_max":0,"o":"m 360 144 l 89 144 l -14 -144 l 197 -144 z m 671 144 l 399 144 l 297 -144 l 508 -144 z "},"“":{"ha":756,"x_min":0,"x_max":0,"o":"m 32 683 l 313 683 l 407 985 l 189 985 z m 357 683 l 638 683 l 732 985 l 514 985 z "},"”":{"ha":736,"x_min":0,"x_max":0,"o":"m 401 981 l 121 981 l 40 694 l 258 694 z m 722 981 l 442 981 l 361 694 l 579 694 z "},"‘":{"ha":431,"x_min":0,"x_max":0,"o":"m 32 683 l 313 683 l 407 985 l 189 985 z "},"’":{"ha":415,"x_min":0,"x_max":0,"o":"m 401 981 l 121 981 l 40 694 l 258 694 z "},"‚":{"ha":410,"x_min":0,"x_max":0,"o":"m 361 160 l 90 160 l -12 -144 l 199 -144 z "}," ":{"ha":253,"x_min":0,"x_max":0,"o":""}," ":{"ha":253,"x_min":0,"x_max":0,"o":""},"ƒ":{"ha":708,"x_min":0,"x_max":0,"o":"m 15 -115 b 400 49 183 -207 364 -140 l 468 422 l 601 422 l 601 625 l 504 625 l 529 733 b 618 781 540 789 571 800 l 696 931 b 292 758 521 1071 324 953 l 263 625 l 126 625 l 126 422 l 225 422 l 163 96 b 72 56 153 42 119 32 z "},"€":{"ha":896,"x_min":0,"x_max":0,"o":"m 121 653 l 65 653 l 35 503 l 121 503 l 121 460 l 65 460 l 35 310 l 121 310 b 504 -14 129 94 315 -14 b 858 208 628 -14 776 49 l 642 308 b 367 310 589 178 383 203 l 581 310 l 613 460 l 365 460 l 365 503 l 581 503 l 613 653 l 365 653 l 365 658 b 651 686 365 781 585 808 l 854 768 b 508 997 775 943 629 997 b 121 658 311 997 121 881 z "},"¢":{"ha":664,"x_min":0,"x_max":0,"o":"m 442 815 l 264 815 l 264 717 b 56 464 150 689 56 606 l 56 254 b 264 1 56 113 150 29 l 264 -96 l 442 -96 l 442 6 b 631 203 518 31 594 89 l 428 249 b 285 250 401 164 285 174 l 285 469 b 419 469 285 546 401 557 l 617 531 b 442 714 586 639 515 692 z "},"¤":{"ha":856,"x_min":0,"x_max":0,"o":"m 47 238 l 201 74 b 276 144 201 74 254 122 b 426 113 324 122 376 113 b 579 146 486 113 531 121 l 653 72 l 810 240 l 743 304 b 776 460 765 353 776 403 b 742 613 776 514 764 567 l 810 679 l 653 847 l 578 772 b 426 807 532 793 479 807 b 276 775 371 807 322 796 l 203 849 l 44 679 l 111 614 b 78 460 92 568 78 514 b 111 306 78 404 89 351 z m 289 458 b 426 599 289 538 351 599 b 563 458 500 599 563 538 b 426 321 563 382 500 321 b 289 458 351 321 289 382 z "},"$":{"ha":792,"x_min":0,"x_max":0,"o":"m 313 -90 l 492 -90 l 492 0 b 756 275 626 33 743 125 b 492 593 765 488 640 557 l 492 749 b 565 699 522 743 550 725 l 732 804 b 492 969 658 915 589 957 l 492 1050 l 313 1050 l 313 968 b 50 688 174 938 58 842 b 313 381 47 492 176 413 l 313 246 b 211 314 276 251 249 263 l 33 192 b 313 -1 101 74 199 3 z m 269 686 b 322 761 269 714 289 743 l 322 603 b 269 685 286 615 268 646 z m 536 301 b 483 226 536 274 517 244 l 483 385 b 536 303 519 372 538 342 z "},"£":{"ha":736,"x_min":0,"x_max":0,"o":"m 696 871 b 458 986 625 954 529 986 b 160 692 229 986 160 824 l 160 588 l 51 588 l 51 375 l 160 375 l 160 219 l 51 219 l 51 0 l 683 0 l 683 219 l 397 219 l 397 375 l 631 375 l 631 588 l 397 588 l 397 685 b 558 739 397 772 501 801 z "},"¥":{"ha":989,"x_min":0,"x_max":0,"o":"m 782 501 l 683 501 l 963 983 l 671 983 l 493 608 l 315 983 l 26 983 l 304 501 l 249 501 l 218 351 l 369 351 l 369 308 l 249 308 l 218 158 l 369 158 l 369 0 l 618 0 l 618 158 l 750 158 l 782 308 l 618 308 l 618 351 l 750 351 z "},"≈":{"ha":690,"x_min":0,"x_max":0,"o":"m 518 689 b 240 711 439 572 338 726 b 42 554 174 706 101 651 l 156 450 b 296 472 194 493 238 501 b 440 435 346 450 394 435 b 643 586 515 435 583 476 z m 513 414 b 367 406 438 369 439 381 l 367 404 b 47 279 218 464 158 458 l 174 171 b 243 225 210 208 229 225 b 297 201 258 225 275 215 b 439 157 343 174 392 157 b 647 314 515 157 586 203 z "},"~":{"ha":679,"x_min":0,"x_max":0,"o":"m 503 543 b 251 558 421 394 372 558 b 35 400 161 558 92 483 l 189 271 b 421 254 263 394 314 254 b 644 425 518 254 590 332 z "},"÷":{"ha":707,"x_min":0,"x_max":0,"o":"m 39 519 l 39 308 l 669 308 l 669 519 z m 226 136 b 357 10 226 63 283 10 b 489 136 431 10 489 63 b 357 261 489 210 431 261 b 226 136 283 261 226 210 z m 226 693 b 357 567 226 619 283 567 b 489 693 431 567 489 619 b 357 818 489 767 431 818 b 226 693 283 818 226 767 z "},"=":{"ha":733,"x_min":0,"x_max":0,"o":"m 668 658 l 65 658 l 65 443 l 668 443 z m 668 376 l 65 376 l 65 160 l 668 160 z "},">":{"ha":618,"x_min":0,"x_max":0,"o":"m 583 482 l 74 808 l 74 532 l 308 406 l 74 285 l 74 8 l 583 331 z "},"≥":{"ha":679,"x_min":0,"x_max":0,"o":"m 624 624 l 79 913 l 79 656 l 279 551 l 239 532 l 79 451 l 79 254 l 57 254 l 57 25 l 629 25 l 629 254 l 194 254 l 624 479 z "},"∞":{"ha":932,"x_min":0,"x_max":0,"o":"m 893 396 b 657 640 893 539 797 635 b 471 547 579 643 515 600 b 286 640 425 603 364 640 b 40 390 143 640 40 535 b 279 147 40 253 146 147 b 467 232 364 147 426 188 b 649 147 511 175 574 147 b 893 394 774 147 893 246 z m 285 450 b 369 394 306 450 338 426 b 283 338 333 357 304 338 b 285 450 197 338 197 450 z m 651 450 b 653 338 739 450 739 338 b 567 394 632 338 603 357 b 651 450 599 426 631 450 z "},"∫":{"ha":532,"x_min":0,"x_max":0,"o":"m 529 1031 b 361 1088 471 1074 411 1088 b 142 838 244 1088 142 1001 b 154 74 151 311 154 158 b 60 39 154 19 106 6 l 0 -108 b 176 -168 64 -149 124 -168 b 399 74 294 -168 399 -87 l 392 832 b 482 894 393 907 438 919 z "},"<":{"ha":618,"x_min":0,"x_max":0,"o":"m 543 532 l 543 808 l 35 482 l 35 331 l 543 8 l 543 285 b 319 406 475 322 393 367 z "},"≤":{"ha":679,"x_min":0,"x_max":0,"o":"m 600 663 l 600 917 l 56 629 l 56 483 l 501 250 l 50 250 l 50 18 l 622 18 l 622 250 l 600 250 l 600 456 b 399 556 429 540 407 550 z "},"¬":{"ha":801,"x_min":0,"x_max":0,"o":"m 56 361 l 499 361 l 499 178 l 732 178 l 732 596 l 56 596 z "},"−":{"ha":840,"x_min":0,"x_max":0,"o":"m 775 526 l 65 526 l 65 293 l 775 293 z "},"×":{"ha":744,"x_min":0,"x_max":0,"o":"m 372 572 l 201 743 l 35 578 l 207 404 l 40 238 l 203 69 b 374 240 254 122 319 185 l 540 74 l 707 240 l 542 407 l 707 572 l 542 742 z "},"≠":{"ha":733,"x_min":0,"x_max":0,"o":"m 53 158 l 143 158 l 113 99 l 281 28 l 349 158 l 679 158 l 679 356 l 453 356 l 483 414 l 679 414 l 679 611 l 588 611 l 618 668 l 450 744 l 381 611 l 53 611 l 53 414 l 276 414 l 246 356 l 53 356 z "},"∂":{"ha":703,"x_min":0,"x_max":0,"o":"m 185 715 b 424 639 283 783 417 772 b 333 656 393 650 364 656 b 35 306 185 656 29 518 b 308 -8 39 143 124 -8 b 658 499 533 -8 658 204 b 317 960 658 826 485 960 b 79 874 236 960 154 922 z m 310 213 b 425 425 213 213 256 551 b 399 292 424 376 415 328 b 321 213 378 247 349 211 z "},"%":{"ha":1028,"x_min":0,"x_max":0,"o":"m 76 10 l 256 -106 l 939 946 l 760 1065 z m 451 751 b 242 997 451 908 376 997 b 36 754 122 997 36 903 b 242 506 36 592 111 506 b 451 751 363 506 451 599 z m 286 751 b 240 671 286 697 269 671 b 192 753 213 671 192 693 b 240 835 192 810 213 835 b 286 751 268 835 286 810 z m 993 238 b 783 483 993 394 918 483 b 578 240 664 483 578 389 b 783 -8 578 78 653 -8 b 993 238 904 -8 993 85 z m 828 238 b 782 157 828 183 811 157 b 733 239 754 157 733 179 b 782 321 733 296 754 321 b 828 238 810 321 828 296 z "},"‰":{"ha":1489,"x_min":0,"x_max":0,"o":"m 76 10 l 256 -106 l 939 946 l 760 1065 z m 451 751 b 242 997 451 908 376 997 b 36 754 122 997 36 903 b 242 506 36 592 111 506 b 451 751 363 506 451 599 z m 286 751 b 240 671 286 697 269 671 b 192 753 213 671 192 693 b 240 835 192 810 213 835 b 286 751 268 835 286 810 z m 993 238 b 783 483 993 394 918 483 b 578 240 664 483 578 389 b 783 -8 578 78 653 -8 b 993 238 904 -8 993 85 z m 1457 238 b 1247 483 1457 394 1382 483 b 1042 240 1128 483 1042 389 b 1247 -8 1042 78 1117 -8 b 1457 238 1368 -8 1457 85 z m 828 238 b 782 157 828 183 811 157 b 733 239 754 157 733 179 b 782 321 733 296 754 321 b 828 238 810 321 828 296 z m 1292 238 b 1246 157 1292 183 1275 157 b 1197 239 1218 157 1197 179 b 1246 321 1197 296 1218 321 b 1292 238 1274 321 1292 296 z "},"+":{"ha":786,"x_min":0,"x_max":0,"o":"m 281 564 l 38 564 l 38 328 l 281 328 l 281 90 l 515 90 l 515 328 l 749 328 l 749 564 l 515 564 l 515 800 l 281 800 z "},"±":{"ha":749,"x_min":0,"x_max":0,"o":"m 254 722 l 63 722 l 63 486 l 254 486 l 254 304 l 490 304 l 490 486 l 686 486 l 686 722 l 490 722 l 490 906 l 254 906 z m 688 251 l 61 251 l 61 18 l 688 18 z "},"∏":{"ha":878,"x_min":0,"x_max":0,"o":"m 732 -74 l 732 751 l 842 751 l 842 985 l 38 985 l 38 751 l 143 751 l 143 -74 l 379 -74 l 379 751 l 497 751 l 497 -74 z "},"√":{"ha":751,"x_min":0,"x_max":0,"o":"m 299 -161 l 493 -161 l 749 1054 l 507 1054 l 376 214 l 299 607 l -3 492 l 71 290 l 149 311 z "},"∑":{"ha":760,"x_min":0,"x_max":0,"o":"m 38 72 l 38 -90 l 718 -90 l 718 124 l 354 124 l 585 433 b 365 776 514 536 436 669 l 701 776 l 701 981 l 51 981 l 51 815 b 300 433 132 697 219 553 z "},"∕":{"ha":782,"x_min":0,"x_max":0,"o":"m 799 975 l 603 1094 l -15 53 l 181 -68 z "},"∙":{"ha":367,"x_min":0,"x_max":0,"o":"m 46 421 b 185 285 46 344 103 285 b 321 421 264 285 321 344 b 185 561 321 499 264 561 b 46 421 103 561 46 499 z "},"◊":{"ha":772,"x_min":0,"x_max":0,"o":"m 300 -33 l 467 -33 l 744 463 l 469 956 l 307 956 l 28 460 z m 268 460 l 385 678 l 504 456 l 389 243 z "},"ℓ":{"ha":625,"x_min":0,"x_max":0,"o":"m 472 240 b 365 297 417 189 365 206 l 365 307 b 575 740 490 442 575 588 b 367 993 575 882 508 993 b 135 657 254 993 135 919 l 135 400 l 22 304 l 104 115 l 156 154 b 593 101 207 -47 464 -57 z m 326 557 b 383 735 283 783 383 886 b 326 550 383 681 356 611 z "},"&":{"ha":947,"x_min":0,"x_max":0,"o":"m 725 485 l 636 408 l 554 510 b 674 736 624 558 674 624 b 407 992 674 890 546 988 b 188 560 165 999 18 738 b 40 313 94 504 40 432 b 599 81 40 7 397 -97 l 665 1 l 957 1 l 772 232 l 864 307 z m 403 796 b 457 736 433 796 457 768 b 389 646 457 700 432 675 b 338 732 363 678 338 707 b 403 796 338 768 368 796 z m 454 247 b 296 247 410 196 331 199 b 333 389 265 289 272 357 z "},"^":{"ha":906,"x_min":0,"x_max":0,"o":"m 515 982 l 379 982 l 36 561 l 314 561 l 446 721 l 581 561 l 868 561 z "},"@":{"ha":1054,"x_min":0,"x_max":0,"o":"m 694 747 l 669 718 b 524 774 618 760 574 774 b 254 436 374 774 254 610 b 500 168 254 285 353 168 b 599 194 536 168 569 176 b 700 165 632 171 663 165 b 885 236 769 165 842 197 b 978 750 1021 354 1061 588 b 694 965 928 846 814 931 b 549 983 646 978 597 983 b 47 474 254 983 65 722 b 486 -12 33 181 240 -12 b 660 17 539 -12 597 -3 l 622 150 b 215 438 386 79 215 219 b 561 819 215 619 338 819 b 794 722 639 819 747 789 z m 818 688 l 831 663 b 753 332 882 572 863 381 z m 521 339 b 465 361 500 339 481 344 b 628 565 379 468 492 710 l 583 361 b 521 339 568 346 543 339 z "},"|":{"ha":374,"x_min":0,"x_max":0,"o":"m 304 -187 l 304 1006 l 69 1006 l 69 -187 z "},"¦":{"ha":381,"x_min":0,"x_max":0,"o":"m 308 435 l 308 917 l 72 917 l 72 435 z m 308 -153 l 308 371 l 72 371 l 72 -153 z "},"©":{"ha":1081,"x_min":0,"x_max":0,"o":"m 42 488 b 542 -11 42 213 267 -11 b 1039 488 815 -11 1039 213 b 542 986 1039 761 815 986 b 42 488 267 986 42 761 z m 185 488 b 542 843 185 686 343 843 b 896 488 738 843 896 686 b 542 131 896 290 738 131 b 185 488 343 131 185 290 z m 275 561 b 542 792 275 718 410 792 b 804 615 647 792 768 744 l 674 565 b 419 563 638 692 433 672 l 419 406 b 674 403 433 296 638 276 l 807 353 b 542 176 771 224 647 176 b 275 407 410 176 275 250 z "},"†":{"ha":710,"x_min":0,"x_max":0,"o":"m 35 483 l 236 483 l 236 -133 l 474 -133 l 474 483 l 675 483 l 675 719 l 474 719 l 474 983 l 236 983 l 236 719 l 35 719 z "},"‡":{"ha":760,"x_min":0,"x_max":0,"o":"m 60 96 l 261 96 l 261 -133 l 499 -133 l 499 96 l 700 96 l 700 326 l 499 326 l 499 522 l 700 522 l 700 751 l 499 751 l 499 983 l 261 983 l 261 751 l 60 751 l 60 522 l 261 522 l 261 326 l 60 326 z "},"°":{"ha":524,"x_min":0,"x_max":0,"o":"m 263 544 b 490 774 386 544 490 649 b 263 1001 490 901 388 1001 b 33 774 136 1001 33 901 b 263 544 33 647 136 544 z m 263 704 b 193 771 222 704 193 733 b 263 843 193 808 222 843 b 332 771 303 843 332 808 b 263 704 332 733 303 704 z "},"℮":{"ha":1108,"x_min":0,"x_max":0,"o":"m 376 361 l 1074 361 l 1074 460 b 557 932 1074 719 843 932 b 43 460 275 932 43 719 b 557 -10 43 199 275 -10 b 1064 313 722 -10 926 76 l 832 314 b 558 185 764 215 644 185 b 378 254 490 185 426 211 b 376 318 378 282 376 293 z m 740 557 l 376 557 l 376 663 b 558 733 425 706 492 733 b 740 663 626 733 689 706 z "},"¶":{"ha":918,"x_min":0,"x_max":0,"o":"m 317 -115 l 550 -115 l 550 738 l 606 738 l 606 -115 l 839 -115 l 839 963 l 372 963 b 32 631 144 963 32 797 b 317 303 32 479 129 328 z "},"®":{"ha":1081,"x_min":0,"x_max":0,"o":"m 42 488 b 542 -11 42 213 267 -11 b 1039 488 815 -11 1039 213 b 542 986 1039 761 815 986 b 42 488 267 986 42 761 z m 190 488 b 544 840 190 683 349 840 b 896 488 738 840 896 683 b 544 133 896 293 738 133 b 190 488 349 133 190 293 z m 339 235 l 475 235 l 475 397 l 504 397 l 613 235 l 774 235 l 654 407 b 564 732 811 469 788 732 l 339 732 z m 475 508 l 475 614 l 558 614 b 560 508 631 614 633 508 z "},"§":{"ha":660,"x_min":0,"x_max":0,"o":"m 50 51 b 324 -114 118 -58 225 -114 b 603 138 476 -114 603 3 b 550 285 603 186 589 236 b 617 424 593 319 617 371 b 307 728 617 647 307 633 b 415 739 307 776 376 803 l 579 838 b 344 985 507 946 431 985 b 69 728 206 985 69 890 b 114 607 69 689 85 642 b 44 460 67 574 44 522 b 371 146 44 258 371 229 b 213 160 371 92 265 83 z m 290 424 b 271 514 242 443 222 488 b 401 371 397 463 447 419 z "},"™":{"ha":1199,"x_min":0,"x_max":0,"o":"m 163 401 l 392 401 l 392 760 l 517 760 l 517 985 l 40 985 l 40 760 l 163 760 z m 557 404 l 771 404 l 768 571 l 831 468 l 865 468 l 924 569 l 919 404 l 1126 404 l 1126 985 l 942 985 l 843 801 l 747 985 l 557 985 z "},"´":{"ha":536,"x_min":0,"x_max":0,"o":"m 536 1281 l 278 1281 l 139 1050 l 354 1050 z "},"˘":{"ha":625,"x_min":0,"x_max":0,"o":"m 368 1281 b 260 1281 368 1210 260 1210 l 69 1281 b 556 1281 69 958 556 958 z "},"ˇ":{"ha":613,"x_min":0,"x_max":0,"o":"m 19 1283 l 228 1050 l 397 1050 l 606 1283 l 374 1283 l 310 1211 l 253 1283 z "},"¸":{"ha":535,"x_min":0,"x_max":0,"o":"m 407 56 l 233 56 l 163 -103 b 268 -175 235 -108 278 -143 b 114 -162 254 -226 175 -204 l 69 -282 b 272 -353 139 -339 211 -353 b 363 -43 474 -353 549 -92 z "},"ˆ":{"ha":696,"x_min":0,"x_max":0,"o":"m 432 1283 l 269 1283 l 56 1050 l 290 1050 l 351 1122 l 415 1050 l 640 1050 z "},"¨":{"ha":708,"x_min":0,"x_max":0,"o":"m 69 1158 b 186 1043 69 1094 121 1043 b 303 1158 251 1043 303 1094 b 186 1276 303 1225 251 1276 b 69 1158 121 1276 69 1225 z m 404 1158 b 521 1043 404 1094 453 1043 b 639 1158 588 1043 639 1094 b 521 1276 639 1225 588 1276 b 404 1158 453 1276 404 1225 z "},"˙":{"ha":411,"x_min":0,"x_max":0,"o":"m 69 1182 b 207 1046 69 1106 129 1046 b 342 1182 285 1046 342 1106 b 207 1317 342 1257 285 1317 b 69 1182 129 1317 69 1257 z "},"`":{"ha":564,"x_min":0,"x_max":0,"o":"m 425 1050 l 286 1281 l 28 1281 l 210 1050 z "},"˝":{"ha":742,"x_min":0,"x_max":0,"o":"m 419 1269 l 174 1269 l 69 1050 l 265 1050 z m 742 1269 l 488 1269 l 385 1050 l 579 1050 z "},"¯":{"ha":551,"x_min":0,"x_max":0,"o":"m 69 1053 l 482 1053 l 482 1239 l 69 1239 z "},"˛":{"ha":528,"x_min":0,"x_max":0,"o":"m 383 15 l 215 15 b 299 -339 53 -168 104 -339 b 458 -283 347 -339 411 -322 l 419 -135 b 364 -154 397 -149 379 -154 b 390 0 304 -156 308 -81 z "},"˚":{"ha":499,"x_min":0,"x_max":0,"o":"m 67 1210 b 251 1036 67 1110 150 1036 b 432 1208 350 1036 432 1114 b 251 1385 432 1300 353 1385 b 67 1210 150 1385 67 1308 z m 301 1207 b 251 1158 301 1176 279 1158 b 199 1207 218 1158 199 1186 b 251 1263 199 1236 218 1263 b 301 1207 279 1263 301 1236 z "},"˜":{"ha":646,"x_min":0,"x_max":0,"o":"m 190 1035 b 432 1032 246 1143 321 1032 b 576 1189 500 1031 550 1086 l 450 1261 b 246 1267 406 1157 328 1265 b 69 1103 151 1269 90 1214 z "},"̦":{"ha":0,"x_min":0,"x_max":0,"o":"m 557 -69 l 311 -69 l 226 -353 l 453 -353 z "},"ˉ":{"ha":458,"x_min":0,"x_max":0,"o":"m 69 1053 l 482 1053 l 482 1239 l 69 1239 z "}}}
